<?xml version="1.0" encoding="utf-8"?>
<!-- Generator: Adobe Illustrator 26.3.1, SVG Export Plug-In . SVG Version: 6.00 Build 0)  -->
<svg version="1.1" id="Layer_1" xmlns="http://www.w3.org/2000/svg" xmlns:xlink="http://www.w3.org/1999/xlink" x="0px" y="0px"
	 viewBox="0 0 322.25 195.38" style="enable-background:new 0 0 322.25 195.38;" xml:space="preserve">
<style type="text/css">
	.st0{fill:#003A70;}
	.st1{fill:#FFFFFF;}
	.st2{fill:#ED1E24;}
	.st3{fill:none;stroke:#000000;stroke-width:0.2589;stroke-miterlimit:10;}
	.st4{fill:none;stroke:#000000;stroke-width:0.25;stroke-miterlimit:10;}
</style>
<g>
	<g>
		<path d="M241.04,102.11h0.56c0,0,0.01,2.18-1.4,4.29c-1.23,1.7-3.2,2.61-5.91,2.61c-2.53,0-4.6-0.8-6.21-2.4
			c-1.61-1.6-2.41-3.72-2.41-6.36c0-1.73,0.37-3.36,1.11-4.89c0.74-1.53,1.77-2.66,3.1-3.41c1.33-0.74,2.78-1.11,4.37-1.11
			c1.31,0,2.5,0.27,3.56,0.81c1.06,0.54,1.86,1.14,2.38,1.79c0.37-0.73,0.59-1.49,0.67-2.27h0.57l0.16,6.64h-0.56
			c-0.39-2.36-1.18-4-2.37-4.92c-1.19-0.92-2.54-1.38-4.04-1.38c-1.84,0-3.29,0.75-4.37,2.24c-1.08,1.49-1.62,3.62-1.62,6.4
			c0,2.63,0.59,4.64,1.77,6.04c1.18,1.4,2.65,2.1,4.41,2.1c0.94,0,1.9-0.23,2.88-0.68c0.98-0.46,1.76-1.23,2.33-2.32
			C240.59,104.18,240.93,103.13,241.04,102.11z"/>
		<path d="M149.53,80.78h0.56v6.14h-0.56c-0.16-0.7-0.44-1.31-0.84-1.85c-1.54,1.74-3.51,2.61-5.91,2.61c-2.53,0-4.6-0.8-6.21-2.4
			c-1.61-1.6-2.41-3.72-2.41-6.36c0-1.73,0.37-3.36,1.11-4.89c0.74-1.53,1.77-2.66,3.1-3.41c1.33-0.74,2.78-1.11,4.37-1.11
			c1.31,0,2.5,0.27,3.56,0.81c1.06,0.54,1.86,1.14,2.38,1.79c0.37-0.73,0.59-1.49,0.67-2.27h0.57l0.16,6.64h-0.56
			c-0.39-2.36-1.18-4-2.37-4.92c-1.19-0.92-2.54-1.38-4.04-1.38c-1.84,0-3.29,0.75-4.37,2.24c-1.08,1.49-1.62,3.62-1.62,6.4
			c0,2.63,0.59,4.64,1.77,6.04c1.18,1.4,2.65,2.1,4.41,2.1c0.94,0,1.9-0.23,2.88-0.68c0.98-0.46,1.76-1.23,2.33-2.32
			C149.09,82.85,149.43,81.8,149.53,80.78z"/>
		<path d="M152.13,78.48c0-2.71,0.9-4.88,2.71-6.51c1.81-1.64,4.07-2.46,6.77-2.46c2.73,0,5.01,0.81,6.84,2.43
			c1.83,1.62,2.75,3.83,2.75,6.63c0,2.71-0.88,4.91-2.63,6.59c-1.75,1.68-4.06,2.52-6.92,2.52c-2.78,0-5.07-0.84-6.85-2.52
			C153.02,83.49,152.13,81.26,152.13,78.48z M155.09,78.57c0,2.82,0.56,4.93,1.69,6.35c1.12,1.41,2.81,2.12,5.06,2.12
			c1.97,0,3.53-0.71,4.68-2.12c1.15-1.41,1.72-3.52,1.72-6.32c0-2.72-0.56-4.81-1.69-6.26c-1.13-1.45-2.77-2.18-4.91-2.18
			c-2.11,0-3.73,0.71-4.85,2.13C155.65,73.7,155.09,75.8,155.09,78.57z"/>
		<path d="M187.25,82.21l-0.13,5.16h-14.89v-0.59h0.52c0.75,0,1.27-0.09,1.56-0.28c0.29-0.19,0.47-0.48,0.56-0.89
			c0.08-0.4,0.12-1.33,0.12-2.8v-8.59c0-1.4-0.04-2.3-0.12-2.7c-0.08-0.4-0.25-0.68-0.52-0.84c-0.26-0.16-0.84-0.23-1.73-0.23h-0.39
			v-0.59h8.41v0.59h-0.78c-0.86,0-1.43,0.07-1.69,0.21c-0.27,0.14-0.45,0.41-0.54,0.79c-0.09,0.39-0.14,1.31-0.14,2.77v9.18
			c0,1.27,0.03,2.06,0.1,2.38c0.07,0.32,0.26,0.57,0.56,0.74c0.31,0.18,0.96,0.27,1.97,0.27h1.33c1.08,0,1.88-0.09,2.4-0.28
			c0.52-0.19,1.02-0.6,1.49-1.24c0.47-0.64,0.9-1.65,1.29-3.04H187.25z"/>
		<path d="M199.95,69.84h5.85v0.59c-0.78,0.05-1.36,0.23-1.74,0.52c-0.38,0.3-0.62,0.63-0.7,1c-0.09,0.37-0.13,1.09-0.13,2.16v5.83
			c0,1.49-0.06,2.6-0.17,3.32c-0.12,0.72-0.45,1.43-1.01,2.13c-0.56,0.7-1.34,1.25-2.35,1.67c-1.01,0.41-2.17,0.62-3.49,0.62
			c-1.56,0-2.88-0.27-3.96-0.79c-1.08-0.53-1.85-1.22-2.31-2.06c-0.46-0.84-0.69-1.97-0.69-3.38l0.01-1.8v-5.45
			c0-1.4-0.04-2.3-0.12-2.7c-0.08-0.4-0.25-0.68-0.52-0.84c-0.26-0.16-0.84-0.23-1.73-0.23h-0.4v-0.59h8v0.59h-0.35
			c-0.86,0-1.43,0.07-1.69,0.21c-0.27,0.14-0.45,0.41-0.54,0.79c-0.09,0.39-0.14,1.31-0.14,2.77v5.52c0,1.91,0.09,3.27,0.26,4.07
			c0.18,0.8,0.67,1.5,1.49,2.1c0.82,0.6,1.91,0.9,3.27,0.9c1.07,0,2.04-0.2,2.91-0.6c0.87-0.4,1.53-0.9,1.95-1.5
			c0.43-0.6,0.69-1.21,0.78-1.85c0.09-0.63,0.14-1.63,0.14-2.99v-5.97c0-0.99-0.06-1.68-0.17-2.08c-0.11-0.4-0.35-0.71-0.72-0.94
			c-0.37-0.23-0.96-0.37-1.76-0.43V69.84z"/>
		<path d="M218.65,84.34l6.38-14.5h5.38v0.59h-0.65c-0.86,0-1.43,0.07-1.69,0.21c-0.27,0.14-0.45,0.41-0.54,0.79
			c-0.09,0.39-0.14,1.31-0.14,2.77v8.59c0,1.38,0.03,2.28,0.1,2.71c0.07,0.43,0.24,0.74,0.52,0.95c0.28,0.21,0.82,0.31,1.61,0.31
			h0.78v0.59h-8.37v-0.59h0.62c0.74,0,1.26-0.09,1.54-0.28c0.29-0.19,0.47-0.48,0.56-0.89c0.08-0.4,0.12-1.33,0.12-2.8V71.65
			l-6.94,15.72h-0.61l-6.99-15.72v10.26c0,1.4,0.04,2.36,0.13,2.87c0.09,0.51,0.35,0.95,0.8,1.34c0.45,0.38,1.08,0.6,1.89,0.65v0.59
			h-6.27v-0.59c0.75-0.04,1.36-0.25,1.83-0.61c0.47-0.37,0.76-0.82,0.86-1.35c0.1-0.53,0.16-1.53,0.16-2.97v-7.62
			c0-1.4-0.04-2.3-0.12-2.7c-0.08-0.4-0.25-0.68-0.52-0.84c-0.26-0.16-0.84-0.23-1.73-0.23h-0.48v-0.59h5.34L218.65,84.34z"/>
		<path d="M240.13,77.93c1.99,0.15,3.47,0.64,4.43,1.49c0.96,0.84,1.45,1.9,1.45,3.17c0,1.1-0.33,2.05-0.98,2.85
			c-0.65,0.8-1.49,1.32-2.51,1.56c-1.02,0.25-2.39,0.37-4.1,0.37h-6.88v-0.59h0.67c0.75,0,1.27-0.09,1.56-0.28
			c0.29-0.19,0.47-0.48,0.55-0.89s0.12-1.33,0.12-2.8v-8.53c0-1.42-0.04-2.34-0.12-2.75c-0.08-0.41-0.25-0.7-0.52-0.85
			c-0.26-0.16-0.84-0.23-1.73-0.23h-0.34v-0.59l2.88-0.08l3.28-0.1c4.79,0,7.19,1.38,7.19,4.14c0,1.14-0.41,2.05-1.23,2.74
			C243.02,77.22,241.78,77.69,240.13,77.93z M236.96,77.68c0.21,0.01,0.4,0.01,0.54,0.01c1.86,0,3.13-0.29,3.81-0.88
			c0.68-0.59,1.02-1.53,1.02-2.84c0-0.91-0.13-1.62-0.4-2.12c-0.27-0.5-0.67-0.89-1.2-1.16c-0.53-0.27-1.45-0.41-2.74-0.41
			c-0.34,0-0.68,0.01-1.03,0.04V77.68z M236.96,78.32v3.9c0,1.66,0.03,2.72,0.09,3.17c0.06,0.45,0.22,0.79,0.48,1.02
			c0.26,0.23,0.78,0.35,1.56,0.35c1.38,0,2.41-0.35,3.1-1.06c0.69-0.71,1.03-1.77,1.03-3.18c0-1.45-0.39-2.51-1.17-3.2
			c-0.78-0.68-2.15-1.03-4.12-1.03C237.63,78.29,237.31,78.3,236.96,78.32z"/>
		<path d="M259.37,69.84h5.85v0.59c-0.78,0.05-1.36,0.23-1.74,0.52c-0.38,0.3-0.62,0.63-0.7,1c-0.09,0.37-0.13,1.09-0.13,2.16v5.83
			c0,1.49-0.06,2.6-0.17,3.32c-0.12,0.72-0.45,1.43-1.01,2.13c-0.56,0.7-1.34,1.25-2.35,1.67c-1.01,0.41-2.17,0.62-3.49,0.62
			c-1.56,0-2.88-0.27-3.96-0.79c-1.08-0.53-1.85-1.22-2.31-2.06c-0.46-0.84-0.69-1.97-0.69-3.38l0.01-1.8v-5.45
			c0-1.4-0.04-2.3-0.12-2.7c-0.08-0.4-0.25-0.68-0.52-0.84c-0.26-0.16-0.84-0.23-1.73-0.23h-0.4v-0.59h8v0.59h-0.35
			c-0.86,0-1.43,0.07-1.69,0.21c-0.27,0.14-0.45,0.41-0.54,0.79c-0.09,0.39-0.14,1.31-0.14,2.77v5.52c0,1.91,0.09,3.27,0.26,4.07
			c0.18,0.8,0.67,1.5,1.49,2.1c0.82,0.6,1.91,0.9,3.27,0.9c1.07,0,2.04-0.2,2.91-0.6c0.87-0.4,1.53-0.9,1.95-1.5
			c0.43-0.6,0.69-1.21,0.78-1.85c0.09-0.63,0.14-1.63,0.14-2.99v-5.97c0-0.99-0.06-1.68-0.17-2.08s-0.35-0.71-0.72-0.94
			c-0.37-0.23-0.96-0.37-1.76-0.43V69.84z"/>
		<path d="M266.26,87.18v-5.63h0.65c0.73,3.67,2.47,5.51,5.21,5.51c1.23,0,2.19-0.35,2.86-1.05s1.01-1.49,1.01-2.36
			c0-0.88-0.3-1.62-0.89-2.21c-0.59-0.59-1.68-1.22-3.26-1.89c-1.4-0.6-2.46-1.13-3.18-1.58c-0.72-0.45-1.27-1.04-1.67-1.76
			c-0.4-0.72-0.6-1.49-0.6-2.31c0-1.25,0.43-2.29,1.3-3.12c0.87-0.83,1.96-1.25,3.29-1.25c0.74,0,1.44,0.12,2.09,0.36
			c0.65,0.24,1.33,0.74,2.02,1.5c0.4-0.47,0.62-0.99,0.67-1.54h0.57v4.59h-0.57c-0.33-1.34-0.91-2.39-1.74-3.15
			c-0.83-0.77-1.79-1.15-2.89-1.15c-1.04,0-1.81,0.28-2.29,0.85c-0.49,0.56-0.73,1.18-0.73,1.85c0,0.81,0.31,1.49,0.92,2.05
			c0.6,0.57,1.69,1.21,3.27,1.91c1.51,0.67,2.6,1.21,3.29,1.62c0.68,0.41,1.23,0.98,1.65,1.7c0.41,0.72,0.62,1.56,0.62,2.51
			c0,1.5-0.5,2.72-1.5,3.66c-1,0.94-2.33,1.41-4.01,1.41c-1.92,0-3.52-0.74-4.81-2.21c-0.28,0.41-0.5,0.97-0.63,1.71H266.26z"/>
		<path d="M152.69,102.11h0.56v6.14h-0.56c-0.16-0.7-0.44-1.31-0.84-1.85c-1.54,1.74-3.51,2.61-5.91,2.61c-2.53,0-4.6-0.8-6.21-2.4
			c-1.61-1.6-2.41-3.72-2.41-6.36c0-1.73,0.37-3.36,1.11-4.89c0.74-1.53,1.77-2.66,3.1-3.41c1.33-0.74,2.78-1.11,4.37-1.11
			c1.31,0,2.5,0.27,3.56,0.81c1.06,0.54,1.86,1.14,2.38,1.79c0.37-0.73,0.59-1.49,0.67-2.27h0.57l0.16,6.64h-0.56
			c-0.39-2.36-1.18-4-2.37-4.92c-1.19-0.92-2.54-1.38-4.04-1.38c-1.84,0-3.29,0.75-4.37,2.24c-1.08,1.49-1.62,3.62-1.62,6.4
			c0,2.63,0.59,4.64,1.77,6.04c1.18,1.4,2.65,2.1,4.41,2.1c0.94,0,1.9-0.23,2.88-0.68c0.98-0.46,1.76-1.23,2.33-2.32
			C152.25,104.18,152.59,103.13,152.69,102.11z"/>
		<path d="M170.76,103.53l-0.13,5.16h-14.89v-0.59h0.52c0.75,0,1.27-0.09,1.56-0.28c0.29-0.19,0.47-0.48,0.56-0.89
			c0.08-0.4,0.12-1.33,0.12-2.8v-8.59c0-1.4-0.04-2.3-0.12-2.7c-0.08-0.4-0.25-0.68-0.52-0.84c-0.26-0.16-0.84-0.23-1.73-0.23h-0.39
			v-0.59h8.41v0.59h-0.78c-0.86,0-1.43,0.07-1.69,0.21c-0.27,0.14-0.45,0.41-0.54,0.79c-0.09,0.39-0.14,1.31-0.14,2.77v9.18
			c0,1.27,0.03,2.06,0.1,2.38c0.07,0.32,0.26,0.57,0.56,0.74c0.31,0.18,0.96,0.27,1.97,0.27h1.33c1.08,0,1.88-0.09,2.4-0.28
			c0.52-0.19,1.02-0.6,1.49-1.24c0.47-0.64,0.9-1.65,1.29-3.04H170.76z"/>
		<path d="M181.34,102.23h-6.66l-0.45,1.11c-0.67,1.61-1.01,2.66-1.01,3.15c0,0.53,0.18,0.92,0.54,1.2s0.82,0.41,1.38,0.41v0.59
			h-5.21v-0.59c0.78-0.12,1.35-0.39,1.73-0.82c0.38-0.43,0.84-1.32,1.37-2.69c0.04-0.13,0.25-0.63,0.62-1.5l5.09-12.16h0.5
			l5.85,13.92l0.8,1.84c0.18,0.41,0.42,0.74,0.73,0.98c0.31,0.24,0.76,0.39,1.38,0.45v0.59h-6.89v-0.59c0.84,0,1.41-0.06,1.71-0.19
			c0.3-0.12,0.45-0.37,0.45-0.74c0-0.19-0.2-0.75-0.59-1.69L181.34,102.23z M181.12,101.65l-3.1-7.47l-3.09,7.47H181.12z"/>
		<path d="M188.84,108.51v-5.63h0.65c0.73,3.67,2.47,5.51,5.21,5.51c1.23,0,2.19-0.35,2.86-1.05c0.68-0.7,1.01-1.49,1.01-2.36
			c0-0.88-0.3-1.62-0.89-2.21c-0.59-0.59-1.68-1.22-3.26-1.89c-1.4-0.6-2.46-1.13-3.18-1.58c-0.72-0.45-1.27-1.04-1.67-1.76
			c-0.4-0.72-0.6-1.49-0.6-2.31c0-1.25,0.43-2.29,1.3-3.12c0.87-0.83,1.96-1.25,3.29-1.25c0.74,0,1.44,0.12,2.09,0.36
			c0.65,0.24,1.33,0.74,2.02,1.5c0.4-0.47,0.62-0.99,0.67-1.54h0.57v4.59h-0.57c-0.33-1.34-0.91-2.39-1.74-3.15
			c-0.83-0.77-1.79-1.15-2.89-1.15c-1.04,0-1.81,0.28-2.29,0.85c-0.49,0.56-0.73,1.18-0.73,1.85c0,0.81,0.31,1.49,0.92,2.05
			c0.6,0.57,1.69,1.21,3.27,1.91c1.51,0.67,2.6,1.21,3.29,1.62s1.23,0.98,1.65,1.7c0.41,0.72,0.62,1.56,0.62,2.51
			c0,1.5-0.5,2.72-1.5,3.66c-1,0.94-2.33,1.41-4.01,1.41c-1.92,0-3.52-0.74-4.81-2.21c-0.28,0.41-0.5,0.97-0.63,1.71H188.84z"/>
		<path d="M202.64,108.51v-5.63h0.65c0.73,3.67,2.47,5.51,5.21,5.51c1.23,0,2.19-0.35,2.86-1.05c0.68-0.7,1.01-1.49,1.01-2.36
			c0-0.88-0.3-1.62-0.89-2.21c-0.59-0.59-1.68-1.22-3.26-1.89c-1.4-0.6-2.46-1.13-3.18-1.58c-0.72-0.45-1.27-1.04-1.67-1.76
			c-0.4-0.72-0.6-1.49-0.6-2.31c0-1.25,0.43-2.29,1.3-3.12c0.87-0.83,1.96-1.25,3.29-1.25c0.74,0,1.44,0.12,2.09,0.36
			c0.65,0.24,1.33,0.74,2.02,1.5c0.4-0.47,0.62-0.99,0.67-1.54h0.57v4.59h-0.57c-0.33-1.34-0.91-2.39-1.74-3.15
			c-0.83-0.77-1.79-1.15-2.89-1.15c-1.04,0-1.81,0.28-2.29,0.85c-0.49,0.56-0.73,1.18-0.73,1.85c0,0.81,0.31,1.49,0.92,2.05
			c0.6,0.57,1.69,1.21,3.27,1.91c1.51,0.67,2.6,1.21,3.29,1.62c0.68,0.41,1.23,0.98,1.65,1.7c0.41,0.72,0.62,1.56,0.62,2.51
			c0,1.5-0.5,2.72-1.5,3.66c-1,0.94-2.33,1.41-4.01,1.41c-1.92,0-3.52-0.74-4.81-2.21c-0.28,0.41-0.5,0.97-0.63,1.71H202.64z"/>
		<path d="M216.13,91.76v-0.59h8.01v0.59h-0.37c-0.86,0-1.43,0.07-1.69,0.21c-0.27,0.14-0.45,0.41-0.54,0.79
			c-0.09,0.39-0.14,1.31-0.14,2.77v8.59c0,1.38,0.03,2.28,0.1,2.71c0.06,0.43,0.24,0.74,0.52,0.95c0.28,0.21,0.82,0.31,1.61,0.31
			h0.52v0.59h-8.01v-0.59h0.52c0.75,0,1.27-0.09,1.56-0.28c0.29-0.19,0.47-0.48,0.55-0.89s0.12-1.33,0.12-2.8v-8.59
			c0-1.4-0.04-2.3-0.12-2.7c-0.08-0.4-0.25-0.68-0.52-0.84c-0.27-0.16-0.84-0.23-1.73-0.23H216.13z"/>
		<path d="M253.15,102.23h-6.66l-0.45,1.11c-0.67,1.61-1.01,2.66-1.01,3.15c0,0.53,0.18,0.92,0.54,1.2s0.82,0.41,1.38,0.41v0.59
			h-5.21v-0.59c0.78-0.12,1.35-0.39,1.73-0.82c0.38-0.43,0.84-1.32,1.37-2.69c0.04-0.13,0.25-0.63,0.62-1.5l5.09-12.16h0.5
			l5.85,13.92l0.8,1.84c0.18,0.41,0.42,0.74,0.73,0.98c0.31,0.24,0.76,0.39,1.38,0.45v0.59h-6.89v-0.59c0.84,0,1.41-0.06,1.71-0.19
			c0.3-0.12,0.45-0.37,0.45-0.74c0-0.19-0.2-0.75-0.59-1.69L253.15,102.23z M252.93,101.65l-3.1-7.47l-3.09,7.47H252.93z"/>
		<path d="M274.89,103.53l-0.13,5.16h-14.89v-0.59h0.52c0.75,0,1.27-0.09,1.56-0.28c0.29-0.19,0.47-0.48,0.56-0.89
			c0.08-0.4,0.12-1.33,0.12-2.8v-8.59c0-1.4-0.04-2.3-0.12-2.7c-0.08-0.4-0.25-0.68-0.52-0.84c-0.26-0.16-0.84-0.23-1.73-0.23h-0.39
			v-0.59h8.41v0.59h-0.77c-0.86,0-1.43,0.07-1.69,0.21c-0.27,0.14-0.45,0.41-0.54,0.79c-0.09,0.39-0.14,1.31-0.14,2.77v9.18
			c0,1.27,0.03,2.06,0.1,2.38c0.07,0.32,0.26,0.57,0.56,0.74c0.31,0.18,0.96,0.27,1.97,0.27h1.33c1.08,0,1.88-0.09,2.4-0.28
			c0.52-0.19,1.02-0.6,1.49-1.24c0.47-0.64,0.9-1.65,1.29-3.04H274.89z"/>
		<path d="M152.7,123.55h-6.66l-0.45,1.11c-0.67,1.61-1.01,2.66-1.01,3.15c0,0.53,0.18,0.92,0.54,1.2c0.36,0.27,0.82,0.41,1.38,0.41
			v0.59h-5.21v-0.59c0.78-0.12,1.35-0.39,1.73-0.82c0.38-0.43,0.84-1.32,1.37-2.69c0.04-0.13,0.25-0.63,0.62-1.5l5.09-12.16h0.5
			l5.85,13.92l0.8,1.84c0.18,0.41,0.42,0.74,0.73,0.98c0.31,0.24,0.76,0.39,1.38,0.45v0.59h-6.89v-0.59c0.84,0,1.41-0.06,1.71-0.19
			c0.3-0.12,0.45-0.37,0.45-0.74c0-0.19-0.2-0.75-0.59-1.69L152.7,123.55z M152.48,122.97l-3.1-7.47l-3.09,7.47H152.48z"/>
		<path d="M174.65,123.44h0.56v6.14h-0.56c-0.16-0.7-0.44-1.31-0.84-1.85c-1.54,1.74-3.51,2.61-5.91,2.61c-2.53,0-4.6-0.8-6.21-2.4
			c-1.61-1.6-2.41-3.72-2.41-6.36c0-1.73,0.37-3.36,1.11-4.89c0.74-1.53,1.77-2.66,3.1-3.41c1.33-0.74,2.78-1.11,4.37-1.11
			c1.31,0,2.5,0.27,3.56,0.81c1.06,0.54,1.86,1.14,2.38,1.79c0.37-0.73,0.59-1.49,0.67-2.27h0.57l0.16,6.64h-0.56
			c-0.39-2.36-1.18-4-2.37-4.92c-1.19-0.92-2.54-1.38-4.04-1.38c-1.84,0-3.29,0.75-4.37,2.24c-1.08,1.49-1.62,3.62-1.62,6.4
			c0,2.63,0.59,4.64,1.77,6.04c1.18,1.4,2.65,2.1,4.41,2.1c0.94,0,1.9-0.23,2.88-0.68c0.98-0.46,1.76-1.23,2.33-2.32
			S174.55,124.45,174.65,123.44z"/>
		<path d="M187.32,123.55h-6.66l-0.45,1.11c-0.67,1.61-1.01,2.66-1.01,3.15c0,0.53,0.18,0.92,0.54,1.2
			c0.36,0.27,0.82,0.41,1.38,0.41v0.59h-5.21v-0.59c0.78-0.12,1.35-0.39,1.73-0.82c0.38-0.43,0.84-1.32,1.37-2.69
			c0.04-0.13,0.25-0.63,0.62-1.5l5.09-12.16h0.5l5.85,13.92l0.8,1.84c0.18,0.41,0.42,0.74,0.73,0.98c0.31,0.24,0.76,0.39,1.38,0.45
			v0.59h-6.89v-0.59c0.84,0,1.41-0.06,1.71-0.19c0.3-0.12,0.45-0.37,0.45-0.74c0-0.19-0.2-0.75-0.59-1.69L187.32,123.55z
			 M187.1,122.97l-3.1-7.47l-3.09,7.47H187.1z"/>
		<path d="M193.91,112.63l2.88-0.14c2.4-0.12,4.02-0.18,4.86-0.18c2.6,0,4.63,0.4,6.09,1.19s2.54,1.87,3.25,3.22
			c0.71,1.36,1.07,2.92,1.07,4.7c0,1.28-0.19,2.46-0.58,3.52s-0.92,1.95-1.6,2.65c-0.68,0.7-1.46,1.24-2.35,1.6
			c-0.89,0.37-1.74,0.59-2.54,0.68c-0.8,0.09-1.93,0.14-3.39,0.14h-7.77v-0.59h0.72c0.75,0,1.27-0.09,1.56-0.28
			c0.29-0.19,0.47-0.48,0.56-0.89c0.08-0.4,0.12-1.33,0.12-2.8V117c0-1.4-0.04-2.3-0.12-2.71s-0.25-0.69-0.52-0.84
			c-0.26-0.15-0.84-0.23-1.73-0.23h-0.52V112.63z M199.31,113v11.71c0,1.73,0.03,2.85,0.1,3.35c0.06,0.5,0.26,0.85,0.58,1.05
			c0.32,0.2,1.01,0.3,2.05,0.3c1.53,0,2.78-0.21,3.76-0.63c0.98-0.42,1.8-1.24,2.46-2.47c0.66-1.23,0.99-2.79,0.99-4.7
			c0-1.48-0.19-2.8-0.58-3.97c-0.38-1.16-0.93-2.11-1.65-2.84c-0.72-0.73-1.51-1.22-2.38-1.49c-0.87-0.26-1.99-0.39-3.35-0.39
			C200.65,112.93,199.98,112.95,199.31,113z"/>
		<path d="M227.99,124.56h0.62l-0.37,5.45h-14.51v-0.59h0.36c0.87,0,1.43-0.12,1.69-0.35c0.25-0.23,0.42-0.53,0.48-0.89
			c0.07-0.36,0.1-1.27,0.1-2.73v-8.59c0-1.34-0.04-2.21-0.11-2.64c-0.07-0.42-0.24-0.72-0.5-0.89c-0.26-0.17-0.82-0.25-1.66-0.25
			v-0.59h12.52l0.41,4.37h-0.61c-0.28-1.22-0.61-2.09-1.01-2.6c-0.4-0.51-0.88-0.84-1.43-0.97c-0.55-0.13-1.44-0.2-2.66-0.2h-2.43
			v7.35h1.86c0.85,0,1.45-0.07,1.79-0.22c0.34-0.15,0.56-0.37,0.67-0.67c0.11-0.3,0.16-0.88,0.16-1.74h0.61v6h-0.61
			c0-0.97-0.08-1.63-0.25-1.96c-0.16-0.33-0.4-0.55-0.72-0.65c-0.31-0.1-0.85-0.15-1.6-0.15h-1.93v4.15c0,2.08,0.13,3.3,0.4,3.66
			c0.27,0.37,0.99,0.55,2.16,0.55h1.31c0.92,0,1.68-0.12,2.27-0.36c0.59-0.24,1.16-0.72,1.7-1.46
			C227.26,126.87,227.68,125.85,227.99,124.56z"/>
		<path d="M241.7,126.99l6.38-14.5h5.38v0.59h-0.65c-0.86,0-1.43,0.07-1.69,0.21c-0.27,0.14-0.45,0.41-0.54,0.79
			c-0.09,0.39-0.14,1.31-0.14,2.77v8.59c0,1.38,0.03,2.28,0.1,2.71c0.07,0.43,0.24,0.74,0.52,0.95c0.28,0.21,0.82,0.31,1.61,0.31
			h0.78v0.59h-8.37v-0.59h0.62c0.74,0,1.26-0.09,1.54-0.28c0.29-0.19,0.47-0.48,0.56-0.89c0.08-0.4,0.12-1.33,0.12-2.8V114.3
			l-6.94,15.72h-0.61l-6.99-15.72v10.26c0,1.4,0.04,2.36,0.13,2.87c0.09,0.51,0.35,0.95,0.8,1.34c0.45,0.38,1.08,0.6,1.89,0.65v0.59
			h-6.27v-0.59c0.75-0.04,1.36-0.25,1.83-0.61c0.47-0.37,0.76-0.82,0.86-1.35c0.1-0.53,0.16-1.53,0.16-2.97v-7.62
			c0-1.4-0.04-2.3-0.12-2.7c-0.08-0.4-0.25-0.68-0.52-0.84c-0.26-0.16-0.84-0.23-1.73-0.23h-0.48v-0.59h5.34L241.7,126.99z"/>
		<path d="M262.87,122.35l3.45-5.8c0.57-0.95,0.85-1.62,0.85-2.02c0-0.36-0.15-0.69-0.45-0.99c-0.3-0.3-0.84-0.45-1.62-0.45v-0.59
			h5.73v0.59c-0.79,0.11-1.43,0.41-1.92,0.89c-0.49,0.48-1.11,1.35-1.87,2.6l-3.93,6.55v2.33c0,1.49,0.04,2.44,0.14,2.85
			c0.09,0.41,0.28,0.7,0.58,0.87c0.3,0.17,0.88,0.25,1.75,0.25v0.59h-7.47v-0.59h0.28c0.75,0,1.27-0.09,1.56-0.28
			c0.29-0.19,0.47-0.48,0.55-0.89c0.08-0.4,0.12-1.33,0.12-2.8v-2.16l-4.37-7.17c-0.89-1.45-1.48-2.31-1.77-2.59
			c-0.29-0.28-0.82-0.43-1.58-0.45v-0.59h7.11v0.59c-1.33,0-1.99,0.3-1.99,0.9c0,0.24,0.22,0.72,0.66,1.45L262.87,122.35z"/>
	</g>
	<path d="M121.62,109.23V58.61H38.84v50.62c0,0-0.56,12.44,15.2,24.88l26.54,24.07l26.54-24.07
		C122.87,121.67,121.62,109.23,121.62,109.23z"/>
	<path class="st1" d="M114.72,108.39V65.43H82.78l0.14,4.04h27.72v37.24c0,0,0.54,9.55-10.74,18.4l-11.24,10.2l1.52-14.95l7.53-1.26
		v-2.73H62.57c0-0.15-0.07,2.66-0.07,2.66l6.65,1.33l2.21,14.47l-10.71-9.71c-11.29-9.14-10.74-18.4-10.74-18.4V69.47h29.18
		c0.44-1.72,0.52-3.07,0.48-4.04H45.73v42.96c0,0-0.32,10.42,12.52,20.79l22.17,20.11l22.17-20.11
		C115.48,119.08,114.72,108.39,114.72,108.39z M76.82,139.79l-2.65-2.4l-1.19-16.95h3.84V139.79z"/>
	<path class="st1" d="M78.5,114.69c0,0-27.95-12.34-0.44-36.55c0,0,6.29-4.66,3.33-18.22c0,0,10.2,12.76-3.7,28.86
		C77.68,88.78,68.52,98.84,78.5,114.69z"/>
	<path class="st1" d="M82.52,114.67c0,0-5.81-4.53-5.64-11.19c0.3-11.66,11.36-12.23,9.89-26.88c0,0,6.47,9.53-0.11,18.27
		C86.65,94.87,79.74,103.17,82.52,114.67z"/>
	<path class="st1" d="M85.68,114.64c0,0-2.86-7.11,2.25-12.99c0,0,5.11-5.78,3.55-11.77C91.49,89.87,100.67,103.59,85.68,114.64z"/>
</g>
</svg>
