<?xml version="1.0" encoding="utf-8"?>
<!-- Generator: Adobe Illustrator 26.3.1, SVG Export Plug-In . SVG Version: 6.00 Build 0)  -->
<svg version="1.1" id="Layer_1" xmlns="http://www.w3.org/2000/svg" xmlns:xlink="http://www.w3.org/1999/xlink" x="0px" y="0px"
	 viewBox="0 0 322.25 345.09" style="enable-background:new 0 0 322.25 345.09;" xml:space="preserve">
<style type="text/css">
	.st0{fill:#003A70;}
	.st1{fill:#FFFFFF;}
	.st2{fill:#ED1E24;}
	.st3{fill:none;stroke:#000000;stroke-width:0.2589;stroke-miterlimit:10;}
	.st4{fill:none;stroke:#000000;stroke-width:0.25;stroke-miterlimit:10;}
</style>
<g>
	<path d="M205.92,239.84h0.74c0,0,0.01,2.91-1.86,5.72c-1.64,2.27-4.27,3.48-7.88,3.48c-3.38,0-6.14-1.07-8.28-3.21
		c-2.14-2.14-3.21-4.96-3.21-8.48c0-2.31,0.49-4.48,1.48-6.52c0.99-2.04,2.37-3.55,4.14-4.54c1.77-0.99,3.71-1.48,5.82-1.48
		c1.75,0,3.33,0.36,4.75,1.08c1.42,0.72,2.48,1.51,3.18,2.39c0.49-0.98,0.79-1.99,0.9-3.03h0.76l0.21,8.86h-0.74
		c-0.52-3.15-1.57-5.34-3.16-6.57c-1.59-1.23-3.39-1.84-5.39-1.84c-2.45,0-4.39,0.99-5.83,2.98c-1.44,1.99-2.16,4.83-2.16,8.53
		c0,3.5,0.79,6.19,2.36,8.06c1.57,1.87,3.53,2.8,5.88,2.8c1.25,0,2.53-0.3,3.84-0.91c1.31-0.61,2.35-1.64,3.11-3.09
		S205.79,241.2,205.92,239.84z"/>
	<path d="M83.9,211.4h0.74v8.19H83.9c-0.21-0.93-0.58-1.75-1.12-2.46c-2.06,2.32-4.68,3.48-7.88,3.48c-3.38,0-6.14-1.07-8.28-3.21
		c-2.14-2.14-3.21-4.96-3.21-8.48c0-2.31,0.49-4.48,1.48-6.52s2.37-3.55,4.14-4.54c1.77-0.99,3.71-1.48,5.82-1.48
		c1.75,0,3.33,0.36,4.75,1.08c1.42,0.72,2.48,1.51,3.18,2.39c0.49-0.98,0.79-1.99,0.9-3.03h0.76l0.21,8.86H83.9
		c-0.52-3.15-1.57-5.34-3.16-6.57c-1.59-1.23-3.39-1.84-5.39-1.84c-2.45,0-4.39,0.99-5.83,2.98c-1.44,1.99-2.16,4.83-2.16,8.53
		c0,3.5,0.79,6.19,2.36,8.06c1.57,1.87,3.53,2.8,5.88,2.8c1.25,0,2.53-0.3,3.84-0.91c1.31-0.61,2.35-1.64,3.11-3.09
		C83.32,214.16,83.77,212.76,83.9,211.4z"/>
	<path d="M87.37,208.33c0-3.61,1.21-6.5,3.62-8.69c2.41-2.18,5.42-3.27,9.03-3.27c3.64,0,6.68,1.08,9.12,3.24
		c2.44,2.16,3.66,5.11,3.66,8.84c0,3.62-1.17,6.55-3.51,8.79c-2.34,2.24-5.41,3.36-9.23,3.36c-3.71,0-6.76-1.12-9.13-3.36
		C88.56,215,87.37,212.03,87.37,208.33z M91.32,208.46c0,3.76,0.75,6.58,2.25,8.46c1.5,1.88,3.75,2.83,6.75,2.83
		c2.63,0,4.71-0.94,6.24-2.83c1.53-1.88,2.29-4.69,2.29-8.43c0-3.63-0.75-6.41-2.26-8.35c-1.51-1.94-3.69-2.9-6.55-2.9
		c-2.82,0-4.97,0.94-6.47,2.83C92.07,201.96,91.32,204.76,91.32,208.46z"/>
	<path d="M134.21,213.3l-0.17,6.88h-19.85v-0.79h0.69c1,0,1.69-0.13,2.08-0.38c0.38-0.25,0.63-0.65,0.74-1.18s0.16-1.78,0.16-3.73
		v-11.46c0-1.86-0.05-3.06-0.16-3.6c-0.11-0.54-0.34-0.91-0.69-1.12c-0.35-0.21-1.12-0.31-2.3-0.31h-0.52v-0.79h11.22v0.79h-1.03
		c-1.15,0-1.9,0.09-2.26,0.28c-0.36,0.19-0.59,0.54-0.72,1.06c-0.12,0.52-0.18,1.75-0.18,3.69v12.23c0,1.69,0.05,2.75,0.14,3.17
		c0.09,0.43,0.34,0.76,0.75,0.99c0.41,0.24,1.28,0.35,2.63,0.35h1.77c1.44,0,2.5-0.13,3.2-0.38c0.7-0.25,1.36-0.8,1.98-1.65
		c0.63-0.85,1.2-2.2,1.71-4.05H134.21z"/>
	<path d="M151.14,196.81h7.81v0.79c-1.03,0.07-1.81,0.3-2.32,0.7c-0.51,0.4-0.82,0.84-0.94,1.34c-0.12,0.49-0.17,1.45-0.17,2.88
		v7.77c0,1.99-0.08,3.46-0.23,4.43c-0.15,0.96-0.6,1.91-1.34,2.84s-1.78,1.67-3.13,2.22c-1.34,0.55-2.9,0.83-4.65,0.83
		c-2.08,0-3.84-0.35-5.28-1.06c-1.44-0.71-2.47-1.62-3.08-2.74c-0.61-1.12-0.92-2.62-0.92-4.51l0.02-2.4v-7.27
		c0-1.86-0.05-3.06-0.16-3.6c-0.11-0.54-0.34-0.91-0.69-1.12c-0.35-0.21-1.12-0.31-2.3-0.31h-0.53v-0.79h10.67v0.79h-0.47
		c-1.15,0-1.9,0.09-2.26,0.28c-0.36,0.19-0.59,0.54-0.72,1.06c-0.12,0.52-0.18,1.75-0.18,3.69v7.36c0,2.55,0.12,4.36,0.35,5.43
		c0.24,1.07,0.9,2,1.99,2.8c1.09,0.8,2.54,1.2,4.36,1.2c1.42,0,2.72-0.27,3.89-0.8c1.17-0.53,2.03-1.2,2.6-2
		c0.57-0.8,0.92-1.62,1.04-2.46c0.13-0.84,0.19-2.17,0.19-3.99v-7.96c0-1.32-0.08-2.25-0.22-2.77c-0.15-0.53-0.47-0.95-0.96-1.26
		c-0.49-0.31-1.28-0.5-2.34-0.57V196.81z"/>
	<path d="M176.07,216.14l8.51-19.34h7.17v0.79h-0.86c-1.15,0-1.9,0.09-2.26,0.28c-0.36,0.19-0.59,0.54-0.72,1.06
		c-0.12,0.52-0.18,1.75-0.18,3.69v11.46c0,1.84,0.05,3.04,0.14,3.61c0.09,0.57,0.32,0.99,0.7,1.27c0.37,0.28,1.09,0.41,2.15,0.41
		h1.03v0.79h-11.17v-0.79h0.83c0.99,0,1.67-0.13,2.06-0.38c0.38-0.25,0.63-0.65,0.74-1.18c0.11-0.53,0.16-1.78,0.16-3.73v-14.87
		l-9.25,20.96h-0.81l-9.32-20.96v13.68c0,1.87,0.06,3.15,0.17,3.83c0.12,0.68,0.47,1.27,1.07,1.78c0.6,0.51,1.44,0.8,2.52,0.87v0.79
		h-8.36v-0.79c1-0.06,1.81-0.33,2.44-0.82c0.63-0.49,1.01-1.09,1.15-1.8c0.14-0.71,0.21-2.03,0.21-3.96v-10.17
		c0-1.86-0.05-3.06-0.16-3.6c-0.11-0.54-0.34-0.91-0.69-1.12c-0.35-0.21-1.12-0.31-2.3-0.31h-0.64v-0.79h7.12L176.07,216.14z"/>
	<path d="M204.71,207.59c2.65,0.2,4.62,0.86,5.91,1.98c1.29,1.13,1.93,2.53,1.93,4.22c0,1.47-0.44,2.74-1.31,3.8
		c-0.87,1.06-1.99,1.76-3.35,2.09c-1.36,0.33-3.19,0.49-5.47,0.49h-9.17v-0.79h0.9c1,0,1.69-0.13,2.08-0.38
		c0.38-0.25,0.63-0.65,0.73-1.18s0.16-1.78,0.16-3.73v-11.37c0-1.9-0.06-3.12-0.16-3.67c-0.11-0.55-0.34-0.93-0.69-1.14
		c-0.35-0.21-1.12-0.31-2.3-0.31h-0.45v-0.79l3.84-0.1l4.38-0.14c6.39,0,9.58,1.84,9.58,5.51c0,1.52-0.55,2.73-1.65,3.65
		C208.57,206.65,206.92,207.27,204.71,207.59z M200.49,207.27c0.29,0.01,0.53,0.02,0.72,0.02c2.48,0,4.18-0.39,5.08-1.17
		c0.91-0.78,1.36-2.04,1.36-3.79c0-1.22-0.18-2.16-0.53-2.83c-0.36-0.67-0.89-1.18-1.6-1.54c-0.71-0.36-1.93-0.54-3.65-0.54
		c-0.45,0-0.91,0.02-1.38,0.05V207.27z M200.49,208.11v5.2c0,2.22,0.04,3.62,0.12,4.22c0.08,0.6,0.3,1.05,0.65,1.36
		c0.35,0.31,1.04,0.46,2.08,0.46c1.84,0,3.22-0.47,4.14-1.41c0.92-0.94,1.38-2.35,1.38-4.24c0-1.93-0.52-3.35-1.56-4.27
		c-1.04-0.91-2.87-1.37-5.49-1.37C201.39,208.08,200.95,208.09,200.49,208.11z"/>
	<path d="M230.37,196.81h7.81v0.79c-1.03,0.07-1.81,0.3-2.32,0.7c-0.51,0.4-0.82,0.84-0.94,1.34c-0.12,0.49-0.17,1.45-0.17,2.88
		v7.77c0,1.99-0.08,3.46-0.23,4.43c-0.15,0.96-0.6,1.91-1.34,2.84s-1.78,1.67-3.13,2.22c-1.34,0.55-2.9,0.83-4.65,0.83
		c-2.08,0-3.84-0.35-5.28-1.06c-1.44-0.71-2.47-1.62-3.08-2.74c-0.61-1.12-0.92-2.62-0.92-4.51l0.02-2.4v-7.27
		c0-1.86-0.05-3.06-0.16-3.6c-0.11-0.54-0.34-0.91-0.69-1.12c-0.35-0.21-1.12-0.31-2.3-0.31h-0.53v-0.79h10.67v0.79h-0.47
		c-1.15,0-1.9,0.09-2.26,0.28c-0.36,0.19-0.59,0.54-0.72,1.06c-0.12,0.52-0.18,1.75-0.18,3.69v7.36c0,2.55,0.12,4.36,0.35,5.43
		c0.24,1.07,0.9,2,1.99,2.8c1.09,0.8,2.54,1.2,4.36,1.2c1.42,0,2.72-0.27,3.89-0.8c1.17-0.53,2.03-1.2,2.6-2
		c0.57-0.8,0.92-1.62,1.04-2.46c0.13-0.84,0.19-2.17,0.19-3.99v-7.96c0-1.32-0.08-2.25-0.22-2.77c-0.15-0.53-0.47-0.95-0.96-1.26
		c-0.49-0.31-1.28-0.5-2.34-0.57V196.81z"/>
	<path d="M239.56,219.93v-7.51h0.86c0.98,4.89,3.29,7.34,6.94,7.34c1.64,0,2.91-0.47,3.82-1.4s1.35-1.98,1.35-3.14
		c0-1.17-0.4-2.15-1.19-2.95c-0.79-0.78-2.24-1.62-4.34-2.52c-1.87-0.8-3.29-1.51-4.24-2.11c-0.95-0.6-1.7-1.39-2.23-2.35
		c-0.53-0.97-0.8-1.99-0.8-3.08c0-1.67,0.58-3.05,1.73-4.16c1.16-1.11,2.62-1.66,4.39-1.66c0.99,0,1.92,0.16,2.79,0.48
		s1.77,0.99,2.69,2c0.53-0.63,0.83-1.32,0.9-2.05h0.76v6.12h-0.76c-0.44-1.78-1.21-3.18-2.32-4.2c-1.11-1.02-2.39-1.53-3.85-1.53
		c-1.39,0-2.41,0.38-3.06,1.13c-0.65,0.75-0.97,1.58-0.97,2.47c0,1.08,0.41,1.99,1.22,2.74c0.8,0.76,2.26,1.61,4.36,2.55
		c2.01,0.9,3.47,1.62,4.39,2.16c0.91,0.55,1.65,1.3,2.2,2.27c0.55,0.97,0.83,2.08,0.83,3.34c0,2-0.67,3.63-2,4.88
		c-1.33,1.25-3.11,1.88-5.34,1.88c-2.56,0-4.7-0.98-6.41-2.95c-0.38,0.54-0.66,1.3-0.84,2.27H239.56z"/>
	<path d="M88.12,239.84h0.74v8.19h-0.74c-0.21-0.93-0.58-1.75-1.12-2.46c-2.06,2.32-4.68,3.48-7.88,3.48
		c-3.38,0-6.14-1.07-8.28-3.21c-2.14-2.14-3.21-4.96-3.21-8.48c0-2.31,0.49-4.48,1.48-6.52c0.99-2.04,2.37-3.55,4.14-4.54
		c1.77-0.99,3.71-1.48,5.82-1.48c1.75,0,3.33,0.36,4.75,1.08c1.42,0.72,2.48,1.51,3.18,2.39c0.49-0.98,0.79-1.99,0.9-3.03h0.76
		l0.21,8.86h-0.74c-0.52-3.15-1.57-5.34-3.16-6.57c-1.59-1.23-3.39-1.84-5.39-1.84c-2.45,0-4.39,0.99-5.83,2.98
		c-1.44,1.99-2.16,4.83-2.16,8.53c0,3.5,0.79,6.19,2.36,8.06c1.57,1.87,3.53,2.8,5.88,2.8c1.25,0,2.53-0.3,3.84-0.91
		c1.31-0.61,2.35-1.64,3.11-3.09C87.53,242.6,87.98,241.2,88.12,239.84z"/>
	<path d="M112.21,241.74l-0.17,6.88H92.19v-0.79h0.69c1,0,1.69-0.13,2.08-0.38c0.38-0.25,0.63-0.65,0.74-1.18s0.16-1.78,0.16-3.73
		v-11.46c0-1.86-0.05-3.06-0.16-3.6c-0.11-0.54-0.34-0.91-0.69-1.12c-0.35-0.21-1.12-0.31-2.3-0.31h-0.52v-0.79h11.22v0.79h-1.03
		c-1.15,0-1.9,0.09-2.26,0.28c-0.36,0.19-0.59,0.54-0.72,1.06c-0.12,0.52-0.18,1.75-0.18,3.69v12.23c0,1.69,0.05,2.75,0.14,3.17
		c0.09,0.43,0.34,0.76,0.75,0.99c0.41,0.24,1.28,0.35,2.63,0.35h1.77c1.44,0,2.5-0.13,3.2-0.38c0.7-0.25,1.36-0.8,1.98-1.65
		c0.63-0.85,1.2-2.2,1.71-4.05H112.21z"/>
	<path d="M126.33,239.99h-8.88l-0.6,1.48c-0.9,2.15-1.34,3.55-1.34,4.21c0,0.7,0.24,1.23,0.72,1.59c0.48,0.36,1.09,0.54,1.84,0.54
		v0.79h-6.94v-0.79c1.03-0.16,1.8-0.53,2.31-1.09c0.51-0.57,1.11-1.77,1.83-3.59c0.06-0.17,0.33-0.84,0.83-2l6.79-16.22h0.67
		l7.81,18.56l1.07,2.45c0.24,0.55,0.57,0.99,0.97,1.3c0.41,0.32,1.02,0.51,1.84,0.59v0.79h-9.18v-0.79c1.13,0,1.89-0.08,2.28-0.25
		c0.4-0.17,0.59-0.5,0.59-0.99c0-0.25-0.26-1.01-0.79-2.26L126.33,239.99z M126.03,239.22l-4.14-9.96l-4.12,9.96H126.03z"/>
	<path d="M136.32,248.37v-7.51h0.86c0.98,4.89,3.29,7.34,6.94,7.34c1.64,0,2.91-0.47,3.82-1.4c0.9-0.94,1.35-1.98,1.35-3.14
		c0-1.17-0.4-2.15-1.19-2.95c-0.79-0.78-2.24-1.62-4.34-2.52c-1.87-0.8-3.29-1.51-4.24-2.11c-0.95-0.6-1.7-1.39-2.23-2.35
		c-0.53-0.97-0.8-1.99-0.8-3.08c0-1.67,0.58-3.05,1.73-4.16c1.16-1.11,2.62-1.66,4.39-1.66c0.99,0,1.92,0.16,2.79,0.48
		c0.87,0.32,1.77,0.99,2.69,2c0.53-0.63,0.83-1.32,0.9-2.05h0.76v6.12h-0.76c-0.44-1.78-1.21-3.18-2.32-4.2
		c-1.11-1.02-2.39-1.53-3.85-1.53c-1.39,0-2.41,0.38-3.06,1.13c-0.65,0.75-0.97,1.58-0.97,2.47c0,1.08,0.41,1.99,1.22,2.74
		c0.8,0.76,2.26,1.61,4.36,2.55c2.01,0.9,3.47,1.62,4.39,2.16c0.91,0.55,1.65,1.3,2.2,2.27c0.55,0.97,0.83,2.08,0.83,3.34
		c0,2-0.67,3.63-2,4.88c-1.33,1.25-3.11,1.88-5.34,1.88c-2.56,0-4.7-0.98-6.41-2.95c-0.38,0.54-0.66,1.3-0.84,2.27H136.32z"/>
	<path d="M154.73,248.37v-7.51h0.86c0.98,4.89,3.29,7.34,6.94,7.34c1.64,0,2.91-0.47,3.82-1.4c0.9-0.94,1.35-1.98,1.35-3.14
		c0-1.17-0.4-2.15-1.19-2.95c-0.79-0.78-2.24-1.62-4.34-2.52c-1.87-0.8-3.29-1.51-4.24-2.11c-0.95-0.6-1.7-1.39-2.23-2.35
		c-0.53-0.97-0.8-1.99-0.8-3.08c0-1.67,0.58-3.05,1.73-4.16c1.16-1.11,2.62-1.66,4.39-1.66c0.99,0,1.92,0.16,2.79,0.48
		c0.87,0.32,1.77,0.99,2.69,2c0.53-0.63,0.83-1.32,0.9-2.05h0.76v6.12h-0.76c-0.44-1.78-1.21-3.18-2.32-4.2
		c-1.11-1.02-2.39-1.53-3.85-1.53c-1.39,0-2.41,0.38-3.06,1.13c-0.65,0.75-0.97,1.58-0.97,2.47c0,1.08,0.41,1.99,1.22,2.74
		c0.8,0.76,2.26,1.61,4.36,2.55c2.01,0.9,3.47,1.62,4.39,2.16c0.91,0.55,1.65,1.3,2.2,2.27c0.55,0.97,0.83,2.08,0.83,3.34
		c0,2-0.67,3.63-2,4.88c-1.33,1.25-3.11,1.88-5.34,1.88c-2.56,0-4.7-0.98-6.41-2.95c-0.38,0.54-0.66,1.3-0.84,2.27H154.73z"/>
	<path d="M172.72,226.04v-0.79h10.68v0.79h-0.5c-1.15,0-1.9,0.09-2.26,0.28c-0.36,0.19-0.59,0.54-0.72,1.06
		c-0.12,0.52-0.18,1.75-0.18,3.69v11.46c0,1.84,0.04,3.04,0.13,3.61s0.32,0.99,0.69,1.27c0.37,0.28,1.09,0.41,2.15,0.41h0.69v0.79
		h-10.68v-0.79h0.69c1,0,1.69-0.13,2.08-0.38c0.38-0.25,0.63-0.65,0.73-1.18s0.16-1.78,0.16-3.73v-11.46c0-1.86-0.05-3.06-0.16-3.6
		c-0.1-0.54-0.33-0.91-0.69-1.12c-0.36-0.21-1.13-0.31-2.31-0.31H172.72z"/>
	<path d="M222.08,239.99h-8.88l-0.6,1.48c-0.9,2.15-1.34,3.55-1.34,4.21c0,0.7,0.24,1.23,0.72,1.59c0.48,0.36,1.09,0.54,1.84,0.54
		v0.79h-6.94v-0.79c1.03-0.16,1.8-0.53,2.31-1.09c0.51-0.57,1.11-1.77,1.83-3.59c0.06-0.17,0.33-0.84,0.83-2l6.79-16.22h0.67
		l7.81,18.56l1.07,2.45c0.24,0.55,0.57,0.99,0.97,1.3c0.41,0.32,1.02,0.51,1.84,0.59v0.79h-9.18v-0.79c1.13,0,1.89-0.08,2.28-0.25
		c0.4-0.17,0.59-0.5,0.59-0.99c0-0.25-0.26-1.01-0.79-2.26L222.08,239.99z M221.78,239.22l-4.14-9.96l-4.12,9.96H221.78z"/>
	<path d="M251.06,241.74l-0.17,6.88h-19.85v-0.79h0.69c1,0,1.69-0.13,2.08-0.38c0.38-0.25,0.63-0.65,0.74-1.18s0.16-1.78,0.16-3.73
		v-11.46c0-1.86-0.05-3.06-0.16-3.6c-0.11-0.54-0.34-0.91-0.69-1.12c-0.35-0.21-1.12-0.31-2.3-0.31h-0.52v-0.79h11.22v0.79h-1.03
		c-1.15,0-1.9,0.09-2.26,0.28c-0.36,0.19-0.6,0.54-0.72,1.06c-0.12,0.52-0.18,1.75-0.18,3.69v12.23c0,1.69,0.05,2.75,0.14,3.17
		c0.09,0.43,0.34,0.76,0.75,0.99c0.41,0.24,1.28,0.35,2.63,0.35h1.77c1.44,0,2.5-0.13,3.2-0.38c0.69-0.25,1.36-0.8,1.98-1.65
		c0.63-0.85,1.2-2.2,1.71-4.05H251.06z"/>
	<path d="M88.13,268.43h-8.88l-0.6,1.48c-0.9,2.15-1.34,3.55-1.34,4.21c0,0.7,0.24,1.23,0.72,1.59s1.09,0.54,1.84,0.54v0.79h-6.94
		v-0.79c1.03-0.16,1.8-0.53,2.31-1.09c0.51-0.57,1.11-1.77,1.83-3.59c0.06-0.17,0.33-0.84,0.83-2l6.79-16.22h0.67l7.81,18.56
		l1.07,2.45c0.24,0.55,0.57,0.99,0.97,1.3c0.41,0.32,1.02,0.51,1.84,0.59v0.79h-9.18v-0.79c1.13,0,1.89-0.08,2.28-0.25
		c0.4-0.17,0.59-0.5,0.59-0.99c0-0.25-0.26-1.01-0.79-2.26L88.13,268.43z M87.84,267.66l-4.14-9.96l-4.12,9.96H87.84z"/>
	<path d="M117.41,268.28h0.74v8.19h-0.74c-0.21-0.93-0.58-1.75-1.12-2.46c-2.06,2.32-4.68,3.48-7.88,3.48
		c-3.38,0-6.14-1.07-8.28-3.21c-2.14-2.14-3.21-4.96-3.21-8.48c0-2.31,0.49-4.48,1.48-6.52s2.37-3.55,4.14-4.54
		c1.77-0.99,3.71-1.48,5.82-1.48c1.75,0,3.33,0.36,4.75,1.08s2.48,1.51,3.18,2.39c0.49-0.98,0.79-1.99,0.9-3.03h0.76l0.21,8.86
		h-0.74c-0.52-3.15-1.57-5.34-3.16-6.57c-1.59-1.23-3.39-1.84-5.39-1.84c-2.45,0-4.39,0.99-5.83,2.98
		c-1.44,1.99-2.16,4.83-2.16,8.53c0,3.5,0.79,6.19,2.36,8.06c1.57,1.87,3.53,2.8,5.88,2.8c1.25,0,2.53-0.3,3.84-0.91
		c1.31-0.61,2.35-1.64,3.11-3.09C116.82,271.04,117.27,269.63,117.41,268.28z"/>
	<path d="M134.3,268.43h-8.88l-0.6,1.48c-0.9,2.15-1.34,3.55-1.34,4.21c0,0.7,0.24,1.23,0.72,1.59s1.09,0.54,1.84,0.54v0.79h-6.94
		v-0.79c1.03-0.16,1.8-0.53,2.31-1.09c0.51-0.57,1.11-1.77,1.83-3.59c0.06-0.17,0.33-0.84,0.83-2l6.79-16.22h0.67l7.81,18.56
		l1.07,2.45c0.24,0.55,0.57,0.99,0.97,1.3c0.41,0.32,1.02,0.51,1.84,0.59v0.79H134v-0.79c1.13,0,1.89-0.08,2.28-0.25
		c0.4-0.17,0.59-0.5,0.59-0.99c0-0.25-0.26-1.01-0.79-2.26L134.3,268.43z M134,267.66l-4.14-9.96l-4.12,9.96H134z"/>
	<path d="M143.09,253.87l3.84-0.19c3.21-0.16,5.37-0.24,6.48-0.24c3.47,0,6.18,0.53,8.12,1.59c1.94,1.06,3.39,2.49,4.33,4.3
		c0.95,1.81,1.42,3.9,1.42,6.26c0,1.71-0.26,3.28-0.78,4.7c-0.52,1.42-1.23,2.6-2.13,3.53s-1.95,1.65-3.14,2.14
		c-1.19,0.49-2.32,0.79-3.39,0.91c-1.07,0.12-2.57,0.18-4.52,0.18h-10.36v-0.79h0.96c1,0,1.69-0.13,2.08-0.38
		c0.38-0.25,0.63-0.65,0.74-1.18c0.11-0.53,0.16-1.78,0.16-3.73V259.7c0-1.86-0.05-3.06-0.16-3.61s-0.34-0.92-0.69-1.12
		c-0.35-0.2-1.12-0.3-2.3-0.3h-0.69V253.87z M150.29,254.35v15.61c0,2.31,0.04,3.8,0.13,4.46c0.09,0.67,0.34,1.13,0.78,1.4
		c0.43,0.27,1.34,0.41,2.73,0.41c2.03,0,3.71-0.28,5.01-0.84c1.31-0.56,2.4-1.65,3.28-3.29c0.88-1.64,1.32-3.72,1.32-6.26
		c0-1.98-0.26-3.74-0.77-5.29c-0.51-1.55-1.24-2.81-2.2-3.78c-0.95-0.97-2.01-1.63-3.17-1.98c-1.16-0.35-2.65-0.53-4.46-0.53
		C152.07,254.27,151.18,254.3,150.29,254.35z"/>
	<path d="M188.53,269.78h0.83l-0.5,7.27H169.5v-0.79h0.48c1.16,0,1.91-0.16,2.25-0.47c0.34-0.31,0.55-0.7,0.65-1.18
		c0.09-0.48,0.14-1.69,0.14-3.64v-11.46c0-1.78-0.05-2.95-0.15-3.52c-0.1-0.56-0.32-0.96-0.67-1.18c-0.35-0.22-1.09-0.34-2.21-0.34
		v-0.79h16.7l0.55,5.82h-0.81c-0.37-1.63-0.82-2.79-1.35-3.47c-0.53-0.68-1.17-1.11-1.9-1.29c-0.74-0.18-1.92-0.27-3.55-0.27h-3.24
		v9.81h2.48c1.14,0,1.93-0.1,2.39-0.29c0.45-0.2,0.75-0.49,0.9-0.89c0.14-0.4,0.22-1.17,0.22-2.32h0.81v8h-0.81
		c0-1.3-0.11-2.17-0.33-2.61c-0.22-0.44-0.54-0.73-0.96-0.86c-0.42-0.13-1.13-0.2-2.13-0.2h-2.57v5.53c0,2.77,0.18,4.4,0.53,4.89
		c0.36,0.49,1.32,0.73,2.88,0.73h1.74c1.23,0,2.24-0.16,3.03-0.47c0.79-0.32,1.55-0.96,2.27-1.95
		C187.55,272.85,188.12,271.5,188.53,269.78z"/>
	<path d="M206.81,273.02l8.51-19.34h7.17v0.79h-0.86c-1.15,0-1.9,0.09-2.26,0.28c-0.36,0.19-0.59,0.54-0.72,1.06
		c-0.12,0.52-0.18,1.75-0.18,3.69v11.46c0,1.84,0.05,3.04,0.14,3.61c0.09,0.57,0.32,0.99,0.7,1.27c0.37,0.28,1.09,0.41,2.15,0.41
		h1.03v0.79h-11.17v-0.79h0.83c0.99,0,1.67-0.13,2.06-0.38c0.38-0.25,0.63-0.65,0.74-1.18c0.11-0.53,0.16-1.78,0.16-3.73v-14.87
		l-9.25,20.96h-0.81l-9.32-20.96v13.68c0,1.87,0.06,3.15,0.17,3.83c0.12,0.68,0.47,1.27,1.07,1.78c0.6,0.51,1.44,0.8,2.52,0.87v0.79
		h-8.36v-0.79c1-0.06,1.81-0.33,2.44-0.82c0.63-0.49,1.01-1.09,1.15-1.8c0.14-0.71,0.21-2.03,0.21-3.96v-10.17
		c0-1.86-0.05-3.06-0.16-3.6c-0.11-0.54-0.34-0.91-0.69-1.12c-0.35-0.21-1.12-0.31-2.3-0.31h-0.64v-0.79h7.12L206.81,273.02z"/>
	<path d="M235.04,266.83l4.6-7.74c0.76-1.26,1.14-2.16,1.14-2.69c0-0.48-0.2-0.92-0.6-1.33c-0.4-0.4-1.12-0.6-2.15-0.6v-0.79h7.64
		v0.79c-1.06,0.15-1.91,0.54-2.56,1.18c-0.65,0.64-1.48,1.8-2.49,3.47l-5.24,8.74v3.1c0,1.99,0.06,3.25,0.18,3.8
		c0.12,0.55,0.38,0.93,0.78,1.15c0.4,0.22,1.17,0.34,2.34,0.34v0.79h-9.96v-0.79h0.38c1,0,1.69-0.13,2.08-0.38
		c0.38-0.25,0.63-0.65,0.73-1.18c0.1-0.53,0.15-1.78,0.15-3.73v-2.88l-5.82-9.56c-1.18-1.93-1.97-3.08-2.36-3.46
		c-0.39-0.37-1.09-0.57-2.1-0.59v-0.79h9.48v0.79c-1.77,0-2.65,0.4-2.65,1.21c0,0.32,0.29,0.96,0.88,1.93L235.04,266.83z"/>
	<path d="M213.94,122.78v-67.5H103.55v67.5c0,0-0.75,16.59,20.26,33.17l35.39,32.09l35.39-32.09
		C215.6,139.37,213.94,122.78,213.94,122.78z"/>
	<path class="st1" d="M204.73,121.66V64.38h-42.59l0.18,5.38h36.96v49.65c0,0,0.73,12.74-14.32,24.54l-14.99,13.6l2.03-19.94
		l10.04-1.67v-3.64h-46.87c0-0.2-0.1,3.54-0.1,3.54l8.86,1.77l2.95,19.29l-14.28-12.95c-15.06-12.19-14.32-24.54-14.32-24.54V69.76
		h38.91c0.58-2.3,0.69-4.09,0.64-5.38h-45.12v57.28c0,0-0.42,13.89,16.7,27.72L159,176.19l29.56-26.81
		C205.75,135.92,204.73,121.66,204.73,121.66z M154.19,163.52l-3.53-3.2l-1.59-22.61h5.12V163.52z"/>
	<path class="st1" d="M156.43,130.06c0,0-37.28-16.45-0.59-48.73c0,0,8.38-6.21,4.44-24.29c0,0,13.6,17.01-4.94,38.48
		C155.34,95.52,143.12,108.92,156.43,130.06z"/>
	<path class="st1" d="M161.79,130.03c0,0-7.75-6.04-7.52-14.92c0.4-15.55,15.15-16.3,13.18-35.85c0,0,8.62,12.71-0.15,24.37
		C167.31,103.63,158.09,114.7,161.79,130.03z"/>
	<path class="st1" d="M166.01,129.99c0,0-3.81-9.48,3-17.33c0,0,6.81-7.7,4.74-15.7C173.75,96.96,186,115.25,166.01,129.99z"/>
</g>
</svg>
