<?xml version="1.0" encoding="utf-8"?>
<!-- Generator: Adobe Illustrator 26.3.1, SVG Export Plug-In . SVG Version: 6.00 Build 0)  -->
<svg version="1.1" id="Layer_1" xmlns="http://www.w3.org/2000/svg" xmlns:xlink="http://www.w3.org/1999/xlink" x="0px" y="0px"
	 viewBox="0 0 322.25 195.38" style="enable-background:new 0 0 322.25 195.38;" xml:space="preserve">
<style type="text/css">
	.st0{fill:#003A70;}
	.st1{fill:#FFFFFF;}
	.st2{fill:#ED1E24;}
	.st3{fill:none;stroke:#000000;stroke-width:0.2589;stroke-miterlimit:10;}
	.st4{fill:none;stroke:#000000;stroke-width:0.25;stroke-miterlimit:10;}
</style>
<g>
	<g>
		<path class="st0" d="M238.51,99.27h0.55c0,0,0.01,2.17-1.39,4.26c-1.22,1.69-3.18,2.59-5.86,2.59c-2.51,0-4.57-0.8-6.16-2.39
			c-1.6-1.59-2.39-3.69-2.39-6.31c0-1.72,0.37-3.34,1.1-4.85c0.74-1.52,1.76-2.64,3.08-3.38c1.32-0.74,2.76-1.1,4.34-1.1
			c1.3,0,2.48,0.27,3.53,0.8s1.85,1.13,2.37,1.78c0.37-0.73,0.59-1.48,0.67-2.26h0.56l0.15,6.59h-0.55
			c-0.39-2.34-1.17-3.97-2.35-4.89c-1.18-0.91-2.52-1.37-4.01-1.37c-1.82,0-3.27,0.74-4.34,2.22c-1.07,1.48-1.61,3.6-1.61,6.35
			c0,2.61,0.59,4.61,1.76,6c1.17,1.39,2.63,2.08,4.37,2.08c0.93,0,1.89-0.23,2.86-0.68c0.98-0.45,1.75-1.22,2.32-2.3
			C238.07,101.32,238.41,100.28,238.51,99.27z"/>
		<path class="st0" d="M147.69,78.1h0.55v6.09h-0.55c-0.15-0.69-0.43-1.3-0.83-1.83c-1.53,1.73-3.48,2.59-5.86,2.59
			c-2.51,0-4.57-0.8-6.16-2.39c-1.6-1.59-2.39-3.69-2.39-6.31c0-1.72,0.37-3.34,1.1-4.85c0.74-1.52,1.76-2.64,3.08-3.38
			c1.32-0.74,2.76-1.1,4.34-1.1c1.3,0,2.48,0.27,3.53,0.8c1.06,0.53,1.85,1.13,2.37,1.78c0.37-0.73,0.59-1.48,0.67-2.26h0.56
			l0.15,6.59h-0.55c-0.39-2.34-1.17-3.97-2.35-4.89c-1.18-0.91-2.52-1.37-4.01-1.37c-1.82,0-3.27,0.74-4.34,2.22
			c-1.07,1.48-1.61,3.6-1.61,6.35c0,2.61,0.59,4.61,1.76,6c1.17,1.39,2.63,2.08,4.37,2.08c0.93,0,1.89-0.23,2.86-0.68
			c0.98-0.45,1.75-1.22,2.32-2.3C147.25,80.16,147.59,79.11,147.69,78.1z"/>
		<path class="st0" d="M150.27,75.82c0-2.69,0.9-4.84,2.69-6.47c1.8-1.62,4.04-2.44,6.72-2.44c2.71,0,4.97,0.8,6.79,2.41
			c1.82,1.61,2.73,3.8,2.73,6.58c0,2.69-0.87,4.87-2.61,6.54c-1.74,1.67-4.03,2.5-6.87,2.5c-2.76,0-5.03-0.83-6.8-2.5
			C151.15,80.78,150.27,78.57,150.27,75.82z M153.21,75.91c0,2.8,0.56,4.9,1.67,6.3c1.12,1.4,2.79,2.1,5.02,2.1
			c1.96,0,3.51-0.7,4.64-2.1c1.14-1.4,1.71-3.49,1.71-6.27c0-2.7-0.56-4.77-1.68-6.21c-1.12-1.44-2.75-2.16-4.87-2.16
			c-2.1,0-3.7,0.7-4.82,2.11C153.76,71.07,153.21,73.15,153.21,75.91z"/>
		<path class="st0" d="M185.13,79.51L185,84.63h-14.78v-0.59h0.51c0.74,0,1.26-0.09,1.55-0.28c0.29-0.19,0.47-0.48,0.55-0.88
			c0.08-0.4,0.12-1.32,0.12-2.78v-8.53c0-1.39-0.04-2.28-0.12-2.68c-0.08-0.4-0.25-0.68-0.51-0.83c-0.26-0.15-0.83-0.23-1.71-0.23
			h-0.38v-0.59h8.35v0.59h-0.77c-0.86,0-1.42,0.07-1.68,0.21c-0.27,0.14-0.44,0.4-0.53,0.79c-0.09,0.38-0.13,1.3-0.13,2.75v9.11
			c0,1.26,0.03,2.04,0.1,2.36c0.07,0.32,0.25,0.56,0.56,0.74c0.3,0.18,0.96,0.26,1.96,0.26h1.32c1.07,0,1.86-0.09,2.38-0.28
			c0.52-0.19,1.01-0.6,1.48-1.23c0.47-0.63,0.89-1.64,1.28-3.01H185.13z"/>
		<path class="st0" d="M197.73,67.24h5.81v0.59c-0.77,0.05-1.35,0.22-1.73,0.52c-0.38,0.29-0.61,0.63-0.7,0.99
			c-0.09,0.37-0.13,1.08-0.13,2.14v5.78c0,1.48-0.06,2.58-0.17,3.3c-0.12,0.72-0.45,1.42-1,2.12c-0.55,0.69-1.33,1.24-2.33,1.65
			c-1,0.41-2.16,0.62-3.46,0.62c-1.55,0-2.86-0.26-3.93-0.79c-1.07-0.53-1.84-1.21-2.3-2.04c-0.46-0.83-0.69-1.95-0.69-3.35
			l0.01-1.78v-5.41c0-1.39-0.04-2.28-0.12-2.68c-0.08-0.4-0.25-0.68-0.51-0.83c-0.26-0.15-0.83-0.23-1.71-0.23h-0.4v-0.59h7.94v0.59
			h-0.35c-0.86,0-1.42,0.07-1.68,0.21c-0.27,0.14-0.44,0.4-0.53,0.79c-0.09,0.38-0.13,1.3-0.13,2.75v5.48c0,1.9,0.09,3.25,0.26,4.04
			c0.18,0.8,0.67,1.49,1.48,2.08c0.81,0.59,1.89,0.89,3.25,0.89c1.06,0,2.02-0.2,2.89-0.6c0.87-0.4,1.51-0.89,1.94-1.49
			c0.42-0.59,0.68-1.21,0.78-1.83c0.09-0.63,0.14-1.62,0.14-2.97v-5.93c0-0.98-0.06-1.67-0.17-2.07c-0.11-0.39-0.35-0.71-0.72-0.94
			c-0.37-0.23-0.95-0.37-1.74-0.42V67.24z"/>
		<path class="st0" d="M216.29,81.63l6.34-14.39h5.34v0.59h-0.64c-0.86,0-1.42,0.07-1.68,0.21c-0.27,0.14-0.44,0.4-0.53,0.79
			c-0.09,0.38-0.13,1.3-0.13,2.75v8.53c0,1.37,0.03,2.26,0.1,2.69c0.07,0.42,0.24,0.74,0.52,0.94c0.28,0.2,0.81,0.31,1.6,0.31h0.77
			v0.59h-8.31v-0.59h0.62c0.74,0,1.25-0.09,1.53-0.28c0.29-0.19,0.47-0.48,0.55-0.88c0.08-0.4,0.12-1.32,0.12-2.78V69.03l-6.89,15.6
			h-0.6l-6.94-15.6v10.18c0,1.39,0.04,2.34,0.13,2.85c0.09,0.5,0.35,0.95,0.8,1.33c0.44,0.38,1.07,0.6,1.87,0.65v0.59h-6.22v-0.59
			c0.74-0.04,1.35-0.25,1.82-0.61c0.47-0.36,0.75-0.81,0.85-1.34c0.1-0.53,0.15-1.51,0.15-2.95v-7.57c0-1.39-0.04-2.28-0.12-2.68
			c-0.08-0.4-0.25-0.68-0.51-0.83c-0.26-0.15-0.83-0.23-1.71-0.23h-0.47v-0.59h5.3L216.29,81.63z"/>
		<path class="st0" d="M237.61,75.27c1.98,0.15,3.44,0.64,4.4,1.48c0.96,0.84,1.44,1.89,1.44,3.14c0,1.09-0.32,2.04-0.98,2.83
			c-0.65,0.79-1.48,1.31-2.49,1.55c-1.01,0.24-2.37,0.37-4.07,0.37h-6.82v-0.59h0.67c0.74,0,1.26-0.09,1.55-0.28
			c0.29-0.19,0.47-0.48,0.54-0.88c0.08-0.4,0.12-1.32,0.12-2.78v-8.47c0-1.41-0.04-2.32-0.12-2.73c-0.08-0.41-0.25-0.69-0.51-0.85
			c-0.26-0.15-0.83-0.23-1.71-0.23h-0.33v-0.59l2.86-0.08l3.26-0.1c4.75,0,7.13,1.37,7.13,4.1c0,1.13-0.41,2.04-1.22,2.72
			C240.48,74.57,239.25,75.03,237.61,75.27z M234.47,75.02c0.21,0.01,0.39,0.01,0.54,0.01c1.85,0,3.11-0.29,3.78-0.87
			c0.68-0.58,1.01-1.52,1.01-2.82c0-0.91-0.13-1.61-0.4-2.1c-0.27-0.5-0.66-0.88-1.19-1.15c-0.53-0.27-1.44-0.4-2.72-0.4
			c-0.33,0-0.68,0.01-1.03,0.04V75.02z M234.47,75.65v3.87c0,1.65,0.03,2.7,0.09,3.14c0.06,0.44,0.22,0.78,0.48,1.01
			c0.26,0.23,0.78,0.35,1.55,0.35c1.37,0,2.39-0.35,3.08-1.05c0.68-0.7,1.03-1.75,1.03-3.16c0-1.44-0.39-2.49-1.16-3.17
			c-0.77-0.68-2.14-1.02-4.09-1.02C235.14,75.63,234.81,75.63,234.47,75.65z"/>
		<path class="st0" d="M256.71,67.24h5.81v0.59c-0.77,0.05-1.35,0.22-1.73,0.52c-0.38,0.29-0.61,0.63-0.7,0.99
			c-0.09,0.37-0.13,1.08-0.13,2.14v5.78c0,1.48-0.06,2.58-0.17,3.3c-0.12,0.72-0.45,1.42-1,2.12c-0.55,0.69-1.33,1.24-2.33,1.65
			c-1,0.41-2.16,0.62-3.46,0.62c-1.55,0-2.86-0.26-3.93-0.79c-1.07-0.53-1.84-1.21-2.3-2.04c-0.46-0.83-0.69-1.95-0.69-3.35
			l0.01-1.78v-5.41c0-1.39-0.04-2.28-0.12-2.68c-0.08-0.4-0.25-0.68-0.51-0.83c-0.26-0.15-0.83-0.23-1.71-0.23h-0.4v-0.59h7.94v0.59
			h-0.35c-0.86,0-1.42,0.07-1.68,0.21c-0.27,0.14-0.44,0.4-0.53,0.79c-0.09,0.38-0.13,1.3-0.13,2.75v5.48c0,1.9,0.09,3.25,0.26,4.04
			c0.18,0.8,0.67,1.49,1.48,2.08c0.81,0.59,1.89,0.89,3.25,0.89c1.06,0,2.02-0.2,2.89-0.6c0.87-0.4,1.51-0.89,1.94-1.49
			c0.42-0.59,0.68-1.21,0.78-1.83c0.09-0.63,0.14-1.62,0.14-2.97v-5.93c0-0.98-0.06-1.67-0.17-2.07c-0.11-0.39-0.35-0.71-0.72-0.94
			c-0.37-0.23-0.95-0.37-1.74-0.42V67.24z"/>
		<path class="st0" d="M263.55,84.45v-5.59h0.64c0.73,3.64,2.45,5.46,5.17,5.46c1.22,0,2.17-0.35,2.84-1.05
			c0.67-0.7,1.01-1.48,1.01-2.34c0-0.87-0.29-1.6-0.88-2.19c-0.59-0.58-1.67-1.21-3.23-1.87c-1.39-0.6-2.45-1.12-3.15-1.57
			c-0.71-0.45-1.26-1.03-1.66-1.75c-0.4-0.72-0.6-1.48-0.6-2.3c0-1.24,0.43-2.27,1.29-3.1c0.86-0.83,1.95-1.24,3.26-1.24
			c0.74,0,1.43,0.12,2.08,0.36c0.65,0.24,1.32,0.74,2,1.49c0.39-0.47,0.62-0.98,0.67-1.53h0.56v4.55h-0.56
			c-0.32-1.33-0.9-2.37-1.72-3.13c-0.83-0.76-1.78-1.14-2.87-1.14c-1.03,0-1.79,0.28-2.28,0.84c-0.48,0.56-0.72,1.17-0.72,1.84
			c0,0.8,0.3,1.48,0.91,2.04c0.6,0.56,1.68,1.2,3.25,1.9c1.5,0.67,2.58,1.2,3.26,1.61c0.68,0.41,1.23,0.97,1.64,1.69
			c0.41,0.72,0.62,1.55,0.62,2.49c0,1.49-0.5,2.7-1.49,3.63c-0.99,0.93-2.32,1.4-3.98,1.4c-1.91,0-3.5-0.73-4.77-2.19
			c-0.28,0.4-0.49,0.97-0.63,1.69H263.55z"/>
		<path class="st0" d="M150.83,99.27h0.55v6.09h-0.55c-0.15-0.69-0.43-1.3-0.83-1.83c-1.53,1.73-3.48,2.59-5.86,2.59
			c-2.51,0-4.57-0.8-6.16-2.39c-1.6-1.59-2.39-3.69-2.39-6.31c0-1.72,0.37-3.34,1.1-4.85c0.74-1.52,1.76-2.64,3.08-3.38
			c1.32-0.74,2.76-1.1,4.34-1.1c1.3,0,2.48,0.27,3.53,0.8s1.85,1.13,2.37,1.78c0.37-0.73,0.59-1.48,0.67-2.26h0.56l0.15,6.59h-0.55
			c-0.39-2.34-1.17-3.97-2.35-4.89c-1.18-0.91-2.52-1.37-4.01-1.37c-1.82,0-3.27,0.74-4.34,2.22c-1.07,1.48-1.61,3.6-1.61,6.35
			c0,2.61,0.59,4.61,1.76,6c1.17,1.39,2.63,2.08,4.37,2.08c0.93,0,1.89-0.23,2.86-0.68c0.98-0.45,1.75-1.22,2.32-2.3
			C150.39,101.32,150.72,100.28,150.83,99.27z"/>
		<path class="st0" d="M168.76,100.68l-0.13,5.12h-14.78v-0.59h0.51c0.74,0,1.26-0.09,1.55-0.28c0.29-0.19,0.47-0.48,0.55-0.88
			c0.08-0.4,0.12-1.32,0.12-2.78v-8.53c0-1.39-0.04-2.28-0.12-2.68c-0.08-0.4-0.25-0.68-0.51-0.83c-0.26-0.15-0.83-0.23-1.71-0.23
			h-0.38V88.4h8.35v0.59h-0.77c-0.86,0-1.42,0.07-1.68,0.21c-0.27,0.14-0.44,0.4-0.53,0.79c-0.09,0.38-0.13,1.3-0.13,2.75v9.11
			c0,1.26,0.03,2.04,0.1,2.36c0.07,0.32,0.25,0.56,0.56,0.74c0.3,0.18,0.96,0.26,1.96,0.26h1.32c1.07,0,1.86-0.09,2.38-0.28
			c0.52-0.19,1.01-0.6,1.48-1.23c0.47-0.63,0.89-1.64,1.28-3.01H168.76z"/>
		<path class="st0" d="M179.26,99.38h-6.61l-0.45,1.1c-0.67,1.6-1,2.64-1,3.13c0,0.52,0.18,0.92,0.53,1.19
			c0.35,0.27,0.81,0.4,1.37,0.4v0.59h-5.17v-0.59c0.77-0.12,1.34-0.39,1.72-0.81c0.38-0.42,0.83-1.31,1.36-2.67
			c0.04-0.13,0.25-0.62,0.62-1.49l5.05-12.07h0.5l5.81,13.81l0.8,1.82c0.18,0.41,0.42,0.73,0.72,0.97c0.3,0.24,0.76,0.38,1.37,0.44
			v0.59h-6.84v-0.59c0.84,0,1.4-0.06,1.7-0.19c0.29-0.12,0.44-0.37,0.44-0.74c0-0.19-0.2-0.75-0.59-1.68L179.26,99.38z
			 M179.05,98.81l-3.08-7.41l-3.07,7.41H179.05z"/>
		<path class="st0" d="M186.7,105.62v-5.59h0.64c0.73,3.64,2.45,5.46,5.17,5.46c1.22,0,2.17-0.35,2.84-1.05
			c0.67-0.7,1.01-1.48,1.01-2.34c0-0.87-0.29-1.6-0.88-2.19c-0.59-0.58-1.67-1.21-3.23-1.87c-1.39-0.6-2.45-1.12-3.16-1.57
			c-0.71-0.45-1.26-1.03-1.66-1.75c-0.4-0.72-0.6-1.48-0.6-2.3c0-1.24,0.43-2.27,1.29-3.1c0.86-0.83,1.95-1.24,3.26-1.24
			c0.74,0,1.43,0.12,2.08,0.36c0.65,0.24,1.32,0.74,2,1.49c0.39-0.47,0.62-0.98,0.67-1.53h0.56v4.55h-0.56
			c-0.33-1.33-0.9-2.37-1.73-3.13c-0.83-0.76-1.78-1.14-2.87-1.14c-1.03,0-1.79,0.28-2.28,0.84c-0.48,0.56-0.72,1.17-0.72,1.84
			c0,0.8,0.3,1.48,0.91,2.04c0.6,0.56,1.68,1.2,3.25,1.9c1.5,0.67,2.58,1.2,3.26,1.61s1.23,0.97,1.64,1.69
			c0.41,0.72,0.62,1.55,0.62,2.49c0,1.49-0.5,2.7-1.49,3.63c-0.99,0.93-2.32,1.4-3.98,1.4c-1.91,0-3.5-0.73-4.77-2.19
			c-0.28,0.4-0.49,0.97-0.63,1.69H186.7z"/>
		<path class="st0" d="M200.4,105.62v-5.59h0.64c0.73,3.64,2.45,5.46,5.17,5.46c1.22,0,2.17-0.35,2.84-1.05
			c0.67-0.7,1.01-1.48,1.01-2.34c0-0.87-0.29-1.6-0.88-2.19c-0.59-0.58-1.67-1.21-3.23-1.87c-1.39-0.6-2.45-1.12-3.16-1.57
			c-0.71-0.45-1.26-1.03-1.66-1.75c-0.4-0.72-0.6-1.48-0.6-2.3c0-1.24,0.43-2.27,1.29-3.1c0.86-0.83,1.95-1.24,3.26-1.24
			c0.74,0,1.43,0.12,2.08,0.36c0.65,0.24,1.32,0.74,2,1.49c0.39-0.47,0.62-0.98,0.67-1.53h0.56v4.55h-0.56
			c-0.33-1.33-0.9-2.37-1.73-3.13c-0.83-0.76-1.78-1.14-2.87-1.14c-1.03,0-1.79,0.28-2.28,0.84c-0.48,0.56-0.72,1.17-0.72,1.84
			c0,0.8,0.3,1.48,0.91,2.04c0.6,0.56,1.68,1.2,3.25,1.9c1.5,0.67,2.58,1.2,3.26,1.61s1.23,0.97,1.64,1.69
			c0.41,0.72,0.62,1.55,0.62,2.49c0,1.49-0.5,2.7-1.49,3.63c-0.99,0.93-2.32,1.4-3.98,1.4c-1.91,0-3.5-0.73-4.77-2.19
			c-0.28,0.4-0.49,0.97-0.63,1.69H200.4z"/>
		<path class="st0" d="M213.8,88.99V88.4h7.95v0.59h-0.37c-0.86,0-1.42,0.07-1.68,0.21c-0.27,0.14-0.44,0.4-0.53,0.79
			c-0.09,0.38-0.13,1.3-0.13,2.75v8.53c0,1.37,0.03,2.26,0.1,2.69c0.06,0.42,0.24,0.74,0.51,0.94c0.28,0.2,0.81,0.31,1.6,0.31h0.51
			v0.59h-7.95v-0.59h0.51c0.74,0,1.26-0.09,1.55-0.28c0.29-0.19,0.47-0.48,0.54-0.88c0.08-0.4,0.12-1.32,0.12-2.78v-8.53
			c0-1.39-0.04-2.28-0.12-2.68c-0.08-0.4-0.25-0.68-0.51-0.83c-0.27-0.15-0.84-0.23-1.72-0.23H213.8z"/>
		<path class="st0" d="M250.53,99.38h-6.61l-0.45,1.1c-0.67,1.6-1,2.64-1,3.13c0,0.52,0.18,0.92,0.53,1.19
			c0.35,0.27,0.81,0.4,1.37,0.4v0.59h-5.17v-0.59c0.77-0.12,1.34-0.39,1.72-0.81c0.38-0.42,0.83-1.31,1.36-2.67
			c0.04-0.13,0.25-0.62,0.62-1.49l5.05-12.07h0.5l5.81,13.81l0.8,1.82c0.18,0.41,0.42,0.73,0.72,0.97c0.3,0.24,0.76,0.38,1.37,0.44
			v0.59h-6.84v-0.59c0.84,0,1.4-0.06,1.7-0.19c0.29-0.12,0.44-0.37,0.44-0.74c0-0.19-0.2-0.75-0.59-1.68L250.53,99.38z
			 M250.32,98.81l-3.08-7.41l-3.07,7.41H250.32z"/>
		<path class="st0" d="M272.11,100.68l-0.13,5.12H257.2v-0.59h0.51c0.74,0,1.26-0.09,1.55-0.28c0.29-0.19,0.47-0.48,0.55-0.88
			c0.08-0.4,0.12-1.32,0.12-2.78v-8.53c0-1.39-0.04-2.28-0.12-2.68c-0.08-0.4-0.25-0.68-0.51-0.83c-0.26-0.15-0.83-0.23-1.71-0.23
			h-0.38V88.4h8.35v0.59h-0.77c-0.86,0-1.42,0.07-1.68,0.21c-0.27,0.14-0.44,0.4-0.53,0.79c-0.09,0.38-0.13,1.3-0.13,2.75v9.11
			c0,1.26,0.03,2.04,0.1,2.36c0.07,0.32,0.25,0.56,0.56,0.74c0.3,0.18,0.96,0.26,1.96,0.26h1.32c1.07,0,1.86-0.09,2.38-0.28
			c0.52-0.19,1.01-0.6,1.47-1.23c0.47-0.63,0.89-1.64,1.28-3.01H272.11z"/>
		<path class="st0" d="M150.84,120.55h-6.61l-0.45,1.1c-0.67,1.6-1,2.64-1,3.13c0,0.52,0.18,0.92,0.53,1.19
			c0.35,0.27,0.81,0.4,1.37,0.4v0.59h-5.17v-0.59c0.77-0.12,1.34-0.39,1.72-0.81c0.38-0.42,0.83-1.31,1.36-2.67
			c0.04-0.13,0.25-0.62,0.62-1.49l5.05-12.07h0.5l5.81,13.81l0.8,1.82c0.18,0.41,0.42,0.73,0.72,0.97c0.3,0.24,0.76,0.38,1.37,0.44
			v0.59h-6.84v-0.59c0.84,0,1.4-0.06,1.7-0.19c0.29-0.12,0.44-0.37,0.44-0.74c0-0.19-0.2-0.75-0.59-1.68L150.84,120.55z
			 M150.62,119.97l-3.08-7.41l-3.07,7.41H150.62z"/>
		<path class="st0" d="M172.63,120.44h0.55v6.09h-0.55c-0.15-0.69-0.43-1.3-0.83-1.83c-1.53,1.73-3.48,2.59-5.86,2.59
			c-2.51,0-4.57-0.8-6.16-2.39c-1.6-1.59-2.39-3.69-2.39-6.31c0-1.72,0.37-3.34,1.1-4.85c0.74-1.52,1.76-2.64,3.08-3.38
			c1.32-0.74,2.76-1.1,4.34-1.1c1.3,0,2.48,0.27,3.53,0.8c1.06,0.53,1.85,1.13,2.37,1.78c0.37-0.73,0.59-1.48,0.67-2.26h0.56
			l0.15,6.59h-0.55c-0.39-2.34-1.17-3.97-2.35-4.89c-1.18-0.91-2.52-1.37-4.01-1.37c-1.82,0-3.27,0.74-4.34,2.22
			c-1.07,1.48-1.61,3.6-1.61,6.35c0,2.61,0.59,4.61,1.76,6c1.17,1.39,2.63,2.08,4.37,2.08c0.93,0,1.89-0.23,2.86-0.68
			c0.98-0.45,1.75-1.22,2.32-2.3C172.19,122.49,172.52,121.45,172.63,120.44z"/>
		<path class="st0" d="M185.2,120.55h-6.61l-0.45,1.1c-0.67,1.6-1,2.64-1,3.13c0,0.52,0.18,0.92,0.53,1.19
			c0.35,0.27,0.81,0.4,1.37,0.4v0.59h-5.17v-0.59c0.77-0.12,1.34-0.39,1.72-0.81c0.38-0.42,0.83-1.31,1.36-2.67
			c0.04-0.13,0.25-0.62,0.62-1.49l5.05-12.07h0.5l5.81,13.81l0.8,1.82c0.18,0.41,0.42,0.73,0.72,0.97c0.3,0.24,0.76,0.38,1.37,0.44
			v0.59h-6.84v-0.59c0.84,0,1.4-0.06,1.7-0.19c0.29-0.12,0.44-0.37,0.44-0.74c0-0.19-0.2-0.75-0.59-1.68L185.2,120.55z
			 M184.98,119.97l-3.08-7.41l-3.07,7.41H184.98z"/>
		<path class="st0" d="M191.74,109.71l2.86-0.14c2.39-0.12,3.99-0.18,4.82-0.18c2.58,0,4.6,0.39,6.04,1.18
			c1.45,0.79,2.52,1.85,3.23,3.2c0.71,1.35,1.06,2.9,1.06,4.66c0,1.27-0.19,2.44-0.58,3.5c-0.39,1.06-0.91,1.93-1.58,2.63
			s-1.45,1.23-2.33,1.59c-0.88,0.36-1.72,0.59-2.52,0.68c-0.8,0.09-1.92,0.13-3.36,0.13h-7.71v-0.59h0.72
			c0.74,0,1.26-0.09,1.55-0.28c0.29-0.19,0.47-0.48,0.55-0.88c0.08-0.4,0.12-1.32,0.12-2.78v-8.39c0-1.39-0.04-2.28-0.12-2.69
			c-0.08-0.41-0.25-0.68-0.51-0.83c-0.26-0.15-0.83-0.22-1.71-0.22h-0.51V109.71z M197.1,110.07v11.62c0,1.72,0.03,2.83,0.1,3.32
			c0.06,0.5,0.26,0.84,0.58,1.05c0.32,0.2,1,0.3,2.03,0.3c1.51,0,2.76-0.21,3.73-0.62c0.98-0.41,1.79-1.23,2.44-2.45
			c0.65-1.22,0.98-2.77,0.98-4.66c0-1.47-0.19-2.78-0.57-3.94c-0.38-1.15-0.93-2.09-1.64-2.82c-0.71-0.72-1.5-1.21-2.36-1.48
			c-0.86-0.26-1.97-0.39-3.32-0.39C198.43,110.01,197.77,110.03,197.1,110.07z"/>
		<path class="st0" d="M225.56,121.55h0.62l-0.37,5.41h-14.4v-0.59h0.36c0.86,0,1.42-0.12,1.67-0.35c0.25-0.23,0.41-0.52,0.48-0.88
			c0.07-0.35,0.1-1.26,0.1-2.71v-8.53c0-1.33-0.04-2.2-0.11-2.62c-0.07-0.42-0.24-0.71-0.5-0.88c-0.26-0.17-0.81-0.25-1.65-0.25
			v-0.59h12.43l0.41,4.34H224c-0.27-1.21-0.61-2.08-1.01-2.58c-0.4-0.51-0.87-0.83-1.42-0.96c-0.55-0.13-1.43-0.2-2.64-0.2h-2.41
			v7.3h1.85c0.85,0,1.44-0.07,1.78-0.22s0.56-0.37,0.67-0.66c0.11-0.3,0.16-0.87,0.16-1.73h0.6v5.95h-0.6
			c0-0.97-0.08-1.61-0.24-1.94c-0.16-0.33-0.4-0.54-0.71-0.64c-0.31-0.1-0.84-0.15-1.58-0.15h-1.91v4.12c0,2.06,0.13,3.27,0.4,3.64
			c0.27,0.36,0.98,0.55,2.14,0.55h1.3c0.91,0,1.67-0.12,2.26-0.35c0.59-0.24,1.15-0.72,1.69-1.45
			C224.84,123.84,225.26,122.83,225.56,121.55z"/>
		<path class="st0" d="M239.17,123.96l6.34-14.39h5.34v0.59h-0.64c-0.86,0-1.42,0.07-1.68,0.21c-0.27,0.14-0.44,0.4-0.53,0.79
			c-0.09,0.38-0.13,1.3-0.13,2.75v8.53c0,1.37,0.03,2.26,0.1,2.69s0.24,0.74,0.52,0.94c0.28,0.2,0.81,0.31,1.6,0.31h0.77v0.59h-8.31
			v-0.59h0.62c0.74,0,1.25-0.09,1.53-0.28c0.29-0.19,0.47-0.48,0.55-0.88c0.08-0.4,0.12-1.32,0.12-2.78v-11.07l-6.89,15.6h-0.6
			l-6.94-15.6v10.18c0,1.39,0.04,2.34,0.13,2.85c0.09,0.5,0.35,0.95,0.8,1.33c0.44,0.38,1.07,0.6,1.87,0.65v0.59h-6.22v-0.59
			c0.74-0.04,1.35-0.25,1.82-0.61c0.47-0.36,0.75-0.81,0.85-1.34c0.1-0.53,0.15-1.51,0.15-2.95v-7.57c0-1.39-0.04-2.28-0.12-2.68
			c-0.08-0.4-0.25-0.68-0.51-0.83c-0.26-0.15-0.83-0.23-1.71-0.23h-0.47v-0.59h5.3L239.17,123.96z"/>
		<path class="st0" d="M260.19,119.36l3.42-5.76c0.56-0.94,0.85-1.61,0.85-2c0-0.36-0.15-0.69-0.45-0.99
			c-0.3-0.3-0.83-0.45-1.6-0.45v-0.59h5.68v0.59c-0.79,0.11-1.42,0.4-1.91,0.88c-0.48,0.47-1.1,1.34-1.85,2.58l-3.9,6.5v2.31
			c0,1.48,0.04,2.42,0.13,2.83c0.09,0.41,0.28,0.69,0.58,0.86c0.29,0.17,0.87,0.25,1.74,0.25v0.59h-7.41v-0.59h0.28
			c0.74,0,1.26-0.09,1.55-0.28c0.29-0.19,0.47-0.48,0.55-0.88c0.08-0.4,0.12-1.32,0.12-2.78v-2.14l-4.34-7.12
			c-0.88-1.44-1.47-2.29-1.76-2.57c-0.29-0.28-0.81-0.43-1.57-0.44v-0.59h7.06v0.59c-1.32,0-1.98,0.3-1.98,0.9
			c0,0.24,0.22,0.72,0.65,1.44L260.19,119.36z"/>
	</g>
	<path class="st0" d="M119.99,106.33V56.09H37.83v50.24c0,0-0.56,12.35,15.08,24.69l26.34,23.89l26.34-23.89
		C121.23,118.68,119.99,106.33,119.99,106.33z"/>
	<path class="st1" d="M113.14,105.5V62.86h-31.7l0.13,4.01h27.51v36.96c0,0,0.54,9.48-10.66,18.27l-11.16,10.12l1.51-14.84
		l7.48-1.25v-2.71H61.38c0-0.15-0.07,2.64-0.07,2.64l6.6,1.32l2.19,14.36l-10.63-9.64c-11.21-9.07-10.66-18.27-10.66-18.27V66.87
		h28.96c0.43-1.71,0.52-3.05,0.48-4.01H44.67v42.64c0,0-0.31,10.34,12.43,20.63l22.01,19.96l22.01-19.96
		C113.9,116.11,113.14,105.5,113.14,105.5z M75.52,136.66l-2.63-2.38l-1.18-16.83h3.81V136.66z"/>
	<path class="st2" d="M77.19,111.75c0,0-27.75-12.25-0.44-36.27c0,0,6.24-4.62,3.31-18.08c0,0,10.13,12.66-3.68,28.64
		C76.38,86.04,67.28,96.02,77.19,111.75z"/>
	<path class="st2" d="M81.18,111.73c0,0-5.77-4.5-5.6-11.11c0.3-11.57,11.27-12.14,9.81-26.68c0,0,6.42,9.46-0.11,18.14
		C85.28,92.08,78.42,100.32,81.18,111.73z"/>
	<path class="st2" d="M84.31,111.7c0,0-2.84-7.05,2.24-12.9c0,0,5.07-5.73,3.53-11.69C90.08,87.12,99.2,100.73,84.31,111.7z"/>
</g>
</svg>
