<?xml version="1.0" encoding="utf-8"?>
<!-- Generator: Adobe Illustrator 26.3.1, SVG Export Plug-In . SVG Version: 6.00 Build 0)  -->
<svg version="1.1" id="Layer_1" xmlns="http://www.w3.org/2000/svg" xmlns:xlink="http://www.w3.org/1999/xlink" x="0px" y="0px"
	 viewBox="0 0 322.25 345.09" style="enable-background:new 0 0 322.25 345.09;" xml:space="preserve">
<style type="text/css">
	.st0{fill:#003A70;}
	.st1{fill:#FFFFFF;}
	.st2{fill:#ED1E24;}
	.st3{fill:none;stroke:#000000;stroke-width:0.2589;stroke-miterlimit:10;}
	.st4{fill:none;stroke:#000000;stroke-width:0.25;stroke-miterlimit:10;}
</style>
<g>
	<path class="st0" d="M206.6,241.74h0.75c0,0,0.01,2.95-1.89,5.8c-1.66,2.3-4.33,3.53-7.99,3.53c-3.43,0-6.23-1.08-8.4-3.25
		c-2.17-2.17-3.26-5.03-3.26-8.6c0-2.34,0.5-4.55,1.5-6.62s2.4-3.6,4.2-4.61c1.79-1,3.76-1.5,5.91-1.5c1.77,0,3.38,0.36,4.82,1.09
		c1.44,0.73,2.51,1.54,3.22,2.42c0.5-0.99,0.8-2.02,0.91-3.08h0.77l0.21,8.98h-0.75c-0.52-3.19-1.59-5.41-3.21-6.66
		c-1.61-1.25-3.43-1.87-5.46-1.87c-2.48,0-4.45,1.01-5.92,3.02c-1.46,2.02-2.19,4.9-2.19,8.65c0,3.55,0.8,6.28,2.39,8.17
		c1.6,1.89,3.58,2.84,5.96,2.84c1.27,0,2.57-0.31,3.9-0.93c1.33-0.62,2.38-1.66,3.15-3.14S206.46,243.12,206.6,241.74z"/>
	<path class="st0" d="M82.85,212.9h0.75v8.3h-0.75c-0.21-0.94-0.59-1.78-1.14-2.5c-2.09,2.35-4.75,3.53-7.99,3.53
		c-3.43,0-6.23-1.08-8.4-3.25c-2.17-2.17-3.26-5.03-3.26-8.6c0-2.34,0.5-4.55,1.5-6.62c1-2.07,2.4-3.6,4.2-4.61
		c1.79-1,3.76-1.5,5.91-1.5c1.77,0,3.38,0.36,4.82,1.09c1.44,0.73,2.51,1.54,3.22,2.42c0.5-0.99,0.8-2.02,0.91-3.08h0.77l0.21,8.98
		h-0.75c-0.52-3.19-1.59-5.41-3.21-6.66c-1.61-1.25-3.43-1.87-5.46-1.87c-2.48,0-4.45,1.01-5.92,3.02c-1.46,2.02-2.19,4.9-2.19,8.65
		c0,3.55,0.8,6.28,2.39,8.17c1.6,1.89,3.58,2.84,5.96,2.84c1.27,0,2.57-0.31,3.9-0.93c1.33-0.62,2.38-1.66,3.15-3.14
		S82.71,214.28,82.85,212.9z"/>
	<path class="st0" d="M86.36,209.79c0-3.66,1.22-6.59,3.67-8.81c2.45-2.21,5.5-3.32,9.16-3.32c3.69,0,6.78,1.1,9.25,3.29
		c2.48,2.19,3.71,5.18,3.71,8.97c0,3.67-1.19,6.64-3.56,8.91c-2.37,2.27-5.49,3.41-9.36,3.41c-3.76,0-6.85-1.14-9.26-3.41
		C87.57,216.55,86.36,213.54,86.36,209.79z M90.36,209.91c0,3.81,0.76,6.67,2.28,8.58c1.52,1.91,3.8,2.87,6.84,2.87
		c2.67,0,4.78-0.96,6.33-2.87c1.55-1.91,2.32-4.76,2.32-8.55c0-3.68-0.76-6.5-2.29-8.47c-1.53-1.96-3.74-2.94-6.64-2.94
		c-2.86,0-5.04,0.96-6.56,2.87C91.12,203.33,90.36,206.16,90.36,209.91z"/>
	<path class="st0" d="M133.87,214.82l-0.18,6.97h-20.13v-0.8h0.7c1.01,0,1.72-0.13,2.11-0.38c0.39-0.26,0.64-0.66,0.75-1.2
		s0.17-1.8,0.17-3.78V204c0-1.89-0.06-3.11-0.17-3.65c-0.11-0.55-0.34-0.93-0.7-1.14c-0.36-0.21-1.13-0.31-2.33-0.31h-0.52v-0.8
		h11.38v0.8h-1.05c-1.17,0-1.93,0.1-2.29,0.29c-0.36,0.19-0.6,0.55-0.73,1.07c-0.12,0.52-0.18,1.77-0.18,3.74v12.41
		c0,1.71,0.05,2.79,0.14,3.22c0.09,0.43,0.35,0.77,0.76,1c0.41,0.24,1.3,0.36,2.67,0.36h1.8c1.46,0,2.54-0.13,3.24-0.38
		c0.7-0.26,1.38-0.82,2.01-1.68c0.63-0.86,1.21-2.23,1.74-4.11H133.87z"/>
	<path class="st0" d="M151.04,198.1h7.92v0.8c-1.05,0.07-1.83,0.31-2.35,0.71c-0.52,0.4-0.84,0.85-0.95,1.35
		c-0.12,0.5-0.17,1.47-0.17,2.92v7.88c0,2.02-0.08,3.51-0.24,4.49c-0.16,0.98-0.61,1.94-1.36,2.88c-0.75,0.94-1.81,1.69-3.17,2.25
		c-1.36,0.56-2.94,0.84-4.72,0.84c-2.11,0-3.89-0.36-5.36-1.07c-1.46-0.72-2.51-1.64-3.13-2.78c-0.62-1.14-0.93-2.66-0.93-4.57
		l0.02-2.43V204c0-1.89-0.06-3.11-0.17-3.65c-0.11-0.55-0.34-0.93-0.7-1.14c-0.36-0.21-1.13-0.31-2.33-0.31h-0.54v-0.8h10.82v0.8
		h-0.47c-1.17,0-1.93,0.1-2.29,0.29c-0.36,0.19-0.6,0.55-0.73,1.07c-0.12,0.52-0.18,1.77-0.18,3.74v7.46c0,2.59,0.12,4.42,0.36,5.51
		c0.24,1.08,0.91,2.03,2.02,2.84c1.11,0.81,2.58,1.21,4.42,1.21c1.45,0,2.76-0.27,3.94-0.81c1.18-0.54,2.06-1.22,2.64-2.03
		c0.58-0.81,0.93-1.64,1.06-2.5c0.13-0.86,0.19-2.21,0.19-4.05v-8.07c0-1.34-0.08-2.28-0.23-2.81c-0.15-0.54-0.48-0.96-0.98-1.28
		c-0.5-0.31-1.29-0.51-2.38-0.58V198.1z"/>
	<path class="st0" d="M176.33,217.71l8.63-19.61h7.27v0.8h-0.87c-1.17,0-1.93,0.1-2.29,0.29c-0.36,0.19-0.6,0.55-0.73,1.07
		c-0.12,0.52-0.18,1.77-0.18,3.74v11.62c0,1.86,0.05,3.08,0.14,3.66c0.09,0.58,0.33,1,0.71,1.28c0.38,0.28,1.1,0.42,2.18,0.42h1.05
		v0.8h-11.33v-0.8h0.84c1,0,1.7-0.13,2.09-0.38c0.39-0.26,0.64-0.66,0.75-1.2c0.11-0.54,0.17-1.8,0.17-3.78v-15.08l-9.39,21.25
		h-0.82l-9.46-21.25v13.88c0,1.9,0.06,3.19,0.17,3.88c0.12,0.69,0.48,1.29,1.08,1.81c0.61,0.52,1.46,0.81,2.55,0.88v0.8h-8.48v-0.8
		c1.01-0.06,1.84-0.34,2.47-0.83c0.63-0.5,1.02-1.1,1.16-1.83c0.14-0.72,0.21-2.06,0.21-4.02V204c0-1.89-0.06-3.11-0.17-3.65
		c-0.11-0.55-0.34-0.93-0.7-1.14c-0.35-0.21-1.13-0.31-2.33-0.31h-0.65v-0.8h7.22L176.33,217.71z"/>
	<path class="st0" d="M205.38,209.04c2.69,0.2,4.69,0.87,6,2.01c1.3,1.14,1.96,2.57,1.96,4.28c0,1.49-0.44,2.78-1.33,3.85
		c-0.89,1.08-2.02,1.78-3.4,2.12c-1.38,0.33-3.23,0.5-5.55,0.5h-9.3v-0.8h0.91c1.01,0,1.72-0.13,2.11-0.38
		c0.39-0.26,0.64-0.66,0.74-1.2s0.16-1.8,0.16-3.78v-11.54c0-1.92-0.06-3.16-0.17-3.72c-0.11-0.56-0.34-0.94-0.7-1.15
		c-0.36-0.21-1.13-0.31-2.33-0.31h-0.45v-0.8l3.9-0.11l4.44-0.14c6.48,0,9.72,1.86,9.72,5.59c0,1.54-0.56,2.77-1.67,3.71
		C209.29,208.08,207.61,208.71,205.38,209.04z M201.09,208.71c0.29,0.01,0.54,0.02,0.73,0.02c2.52,0,4.24-0.4,5.16-1.19
		c0.92-0.79,1.38-2.07,1.38-3.85c0-1.24-0.18-2.19-0.54-2.87c-0.36-0.68-0.9-1.2-1.63-1.56c-0.72-0.37-1.96-0.55-3.71-0.55
		c-0.45,0-0.92,0.02-1.4,0.05V208.71z M201.09,209.56v5.28c0,2.25,0.04,3.68,0.12,4.28c0.08,0.61,0.3,1.07,0.66,1.38
		c0.35,0.31,1.06,0.47,2.11,0.47c1.86,0,3.26-0.48,4.2-1.43c0.93-0.96,1.4-2.39,1.4-4.3c0-1.96-0.53-3.4-1.58-4.33
		c-1.05-0.93-2.91-1.39-5.57-1.39C202,209.53,201.56,209.54,201.09,209.56z"/>
	<path class="st0" d="M231.4,198.1h7.92v0.8c-1.05,0.07-1.83,0.31-2.35,0.71c-0.52,0.4-0.84,0.85-0.95,1.35
		c-0.12,0.5-0.17,1.47-0.17,2.92v7.88c0,2.02-0.08,3.51-0.24,4.49c-0.16,0.98-0.61,1.94-1.36,2.88c-0.75,0.94-1.81,1.69-3.17,2.25
		c-1.36,0.56-2.94,0.84-4.72,0.84c-2.11,0-3.89-0.36-5.36-1.07c-1.46-0.72-2.51-1.64-3.13-2.78c-0.62-1.14-0.93-2.66-0.93-4.57
		l0.02-2.43V204c0-1.89-0.06-3.11-0.17-3.65c-0.11-0.55-0.34-0.93-0.7-1.14c-0.36-0.21-1.13-0.31-2.33-0.31h-0.54v-0.8h10.82v0.8
		h-0.47c-1.17,0-1.93,0.1-2.29,0.29c-0.36,0.19-0.6,0.55-0.73,1.07c-0.12,0.52-0.18,1.77-0.18,3.74v7.46c0,2.59,0.12,4.42,0.36,5.51
		c0.24,1.08,0.91,2.03,2.02,2.84c1.11,0.81,2.58,1.21,4.42,1.21c1.45,0,2.76-0.27,3.94-0.81c1.18-0.54,2.06-1.22,2.64-2.03
		c0.58-0.81,0.93-1.64,1.06-2.5c0.13-0.86,0.19-2.21,0.19-4.05v-8.07c0-1.34-0.08-2.28-0.23-2.81c-0.15-0.54-0.48-0.96-0.98-1.28
		c-0.5-0.31-1.29-0.51-2.38-0.58V198.1z"/>
	<path class="st0" d="M240.71,221.55v-7.62h0.87c0.99,4.96,3.34,7.45,7.04,7.45c1.67,0,2.96-0.48,3.87-1.42
		c0.91-0.95,1.37-2.01,1.37-3.19c0-1.19-0.4-2.18-1.2-2.99c-0.8-0.79-2.27-1.64-4.41-2.55c-1.9-0.82-3.33-1.53-4.3-2.14
		c-0.97-0.61-1.72-1.41-2.26-2.39c-0.54-0.98-0.81-2.02-0.81-3.13c0-1.69,0.59-3.1,1.76-4.22c1.17-1.12,2.65-1.69,4.45-1.69
		c1,0,1.95,0.16,2.83,0.49s1.79,1,2.73,2.03c0.54-0.64,0.84-1.33,0.91-2.08h0.77v6.2h-0.77c-0.44-1.81-1.23-3.23-2.35-4.26
		c-1.13-1.04-2.43-1.56-3.91-1.56c-1.41,0-2.44,0.38-3.1,1.15c-0.66,0.76-0.99,1.6-0.99,2.51c0,1.1,0.41,2.02,1.24,2.78
		c0.81,0.77,2.29,1.63,4.42,2.59c2.04,0.91,3.52,1.64,4.45,2.19c0.93,0.55,1.67,1.32,2.23,2.3c0.56,0.98,0.84,2.11,0.84,3.39
		c0,2.03-0.68,3.68-2.03,4.95c-1.35,1.27-3.16,1.9-5.42,1.9c-2.6,0-4.77-1-6.5-2.99c-0.38,0.55-0.67,1.32-0.86,2.31H240.71z"/>
	<path class="st0" d="M87.12,241.74h0.75v8.3h-0.75c-0.21-0.94-0.59-1.78-1.14-2.5c-2.09,2.35-4.75,3.53-7.99,3.53
		c-3.43,0-6.23-1.08-8.4-3.25c-2.17-2.17-3.26-5.03-3.26-8.6c0-2.34,0.5-4.55,1.5-6.62s2.4-3.6,4.2-4.61c1.79-1,3.76-1.5,5.91-1.5
		c1.77,0,3.38,0.36,4.82,1.09c1.44,0.73,2.51,1.54,3.22,2.42c0.5-0.99,0.8-2.02,0.91-3.08h0.77l0.21,8.98h-0.75
		c-0.52-3.19-1.59-5.41-3.21-6.66c-1.61-1.25-3.43-1.87-5.46-1.87c-2.48,0-4.45,1.01-5.92,3.02c-1.46,2.02-2.19,4.9-2.19,8.65
		c0,3.55,0.8,6.28,2.39,8.17c1.6,1.89,3.58,2.84,5.96,2.84c1.27,0,2.57-0.31,3.9-0.93c1.33-0.62,2.38-1.66,3.15-3.14
		S86.98,243.12,87.12,241.74z"/>
	<path class="st0" d="M111.56,243.67l-0.18,6.97H91.25v-0.8h0.7c1.01,0,1.72-0.13,2.11-0.38c0.39-0.26,0.64-0.66,0.75-1.2
		c0.11-0.54,0.17-1.8,0.17-3.78v-11.62c0-1.89-0.06-3.11-0.17-3.65c-0.11-0.55-0.34-0.93-0.7-1.14c-0.36-0.21-1.13-0.31-2.33-0.31
		h-0.52v-0.8h11.38v0.8h-1.05c-1.17,0-1.93,0.1-2.29,0.29c-0.36,0.19-0.6,0.55-0.73,1.07c-0.12,0.52-0.18,1.77-0.18,3.74v12.41
		c0,1.71,0.05,2.79,0.14,3.22c0.09,0.43,0.35,0.77,0.76,1c0.41,0.24,1.3,0.36,2.67,0.36h1.8c1.46,0,2.54-0.13,3.24-0.38
		c0.7-0.26,1.38-0.82,2.01-1.68c0.63-0.86,1.21-2.23,1.74-4.11H111.56z"/>
	<path class="st0" d="M125.87,241.9h-9l-0.61,1.5c-0.91,2.18-1.36,3.6-1.36,4.27c0,0.71,0.24,1.25,0.73,1.62
		c0.48,0.37,1.1,0.55,1.86,0.55v0.8h-7.04v-0.8c1.05-0.16,1.83-0.53,2.34-1.11c0.51-0.58,1.13-1.79,1.85-3.64
		c0.06-0.17,0.34-0.85,0.84-2.03l6.89-16.45h0.68l7.92,18.82l1.08,2.48c0.24,0.56,0.57,1,0.99,1.32c0.41,0.32,1.03,0.52,1.86,0.6
		v0.8h-9.32v-0.8c1.14,0,1.91-0.08,2.32-0.25c0.4-0.17,0.6-0.5,0.6-1c0-0.26-0.27-1.02-0.8-2.29L125.87,241.9z M125.58,241.11
		l-4.2-10.1l-4.18,10.1H125.58z"/>
	<path class="st0" d="M136.01,250.39v-7.62h0.87c0.99,4.96,3.34,7.45,7.04,7.45c1.67,0,2.96-0.48,3.87-1.42
		c0.91-0.95,1.37-2.01,1.37-3.19c0-1.19-0.4-2.18-1.21-2.99c-0.8-0.79-2.27-1.64-4.4-2.55c-1.9-0.82-3.33-1.53-4.3-2.14
		c-0.97-0.61-1.72-1.41-2.26-2.39c-0.54-0.98-0.81-2.02-0.81-3.13c0-1.69,0.59-3.1,1.76-4.22c1.17-1.12,2.65-1.69,4.45-1.69
		c1,0,1.95,0.16,2.83,0.49c0.89,0.33,1.79,1,2.73,2.03c0.54-0.64,0.84-1.33,0.91-2.08h0.77v6.2h-0.77
		c-0.44-1.81-1.23-3.23-2.35-4.26c-1.12-1.04-2.43-1.56-3.91-1.56c-1.41,0-2.44,0.38-3.1,1.15c-0.66,0.76-0.99,1.6-0.99,2.51
		c0,1.1,0.41,2.02,1.24,2.78c0.82,0.77,2.29,1.63,4.42,2.59c2.04,0.91,3.52,1.64,4.45,2.19c0.93,0.55,1.67,1.32,2.23,2.3
		c0.56,0.98,0.84,2.11,0.84,3.39c0,2.03-0.68,3.68-2.03,4.95c-1.35,1.27-3.16,1.9-5.42,1.9c-2.6,0-4.77-1-6.5-2.99
		c-0.38,0.55-0.67,1.32-0.86,2.31H136.01z"/>
	<path class="st0" d="M154.68,250.39v-7.62h0.87c0.99,4.96,3.34,7.45,7.04,7.45c1.67,0,2.96-0.48,3.87-1.42
		c0.91-0.95,1.37-2.01,1.37-3.19c0-1.19-0.4-2.18-1.21-2.99c-0.8-0.79-2.27-1.64-4.4-2.55c-1.9-0.82-3.33-1.53-4.3-2.14
		c-0.97-0.61-1.72-1.41-2.26-2.39c-0.54-0.98-0.81-2.02-0.81-3.13c0-1.69,0.59-3.1,1.76-4.22c1.17-1.12,2.65-1.69,4.45-1.69
		c1,0,1.95,0.16,2.83,0.49c0.89,0.33,1.79,1,2.73,2.03c0.54-0.64,0.84-1.33,0.91-2.08h0.77v6.2h-0.77
		c-0.44-1.81-1.23-3.23-2.35-4.26c-1.12-1.04-2.43-1.56-3.91-1.56c-1.41,0-2.44,0.38-3.1,1.15c-0.66,0.76-0.99,1.6-0.99,2.51
		c0,1.1,0.41,2.02,1.24,2.78c0.82,0.77,2.29,1.63,4.42,2.59c2.04,0.91,3.52,1.64,4.45,2.19c0.93,0.55,1.67,1.32,2.23,2.3
		c0.56,0.98,0.84,2.11,0.84,3.39c0,2.03-0.68,3.68-2.03,4.95c-1.35,1.27-3.16,1.9-5.42,1.9c-2.6,0-4.77-1-6.5-2.99
		c-0.38,0.55-0.67,1.32-0.86,2.31H154.68z"/>
	<path class="st0" d="M172.92,227.74v-0.8h10.84v0.8h-0.51c-1.17,0-1.93,0.1-2.29,0.29s-0.6,0.55-0.73,1.07
		c-0.12,0.52-0.18,1.77-0.18,3.74v11.62c0,1.86,0.04,3.08,0.13,3.66c0.09,0.58,0.32,1,0.7,1.28c0.38,0.28,1.1,0.42,2.18,0.42h0.7
		v0.8h-10.84v-0.8h0.7c1.01,0,1.72-0.13,2.11-0.38c0.39-0.26,0.64-0.66,0.74-1.2c0.1-0.54,0.16-1.8,0.16-3.78v-11.62
		c0-1.89-0.05-3.11-0.16-3.65c-0.1-0.55-0.34-0.93-0.7-1.14c-0.36-0.21-1.14-0.31-2.34-0.31H172.92z"/>
	<path class="st0" d="M222.99,241.9h-9l-0.61,1.5c-0.91,2.18-1.36,3.6-1.36,4.27c0,0.71,0.24,1.25,0.73,1.62
		c0.48,0.37,1.1,0.55,1.86,0.55v0.8h-7.04v-0.8c1.05-0.16,1.83-0.53,2.34-1.11c0.51-0.58,1.13-1.79,1.85-3.64
		c0.06-0.17,0.34-0.85,0.84-2.03l6.89-16.45h0.68l7.92,18.82l1.08,2.48c0.24,0.56,0.57,1,0.99,1.32c0.41,0.32,1.03,0.52,1.86,0.6
		v0.8h-9.32v-0.8c1.14,0,1.91-0.08,2.32-0.25c0.4-0.17,0.6-0.5,0.6-1c0-0.26-0.27-1.02-0.8-2.29L222.99,241.9z M222.69,241.11
		l-4.2-10.1l-4.18,10.1H222.69z"/>
	<path class="st0" d="M252.39,243.67l-0.18,6.97h-20.13v-0.8h0.7c1.01,0,1.72-0.13,2.11-0.38c0.39-0.26,0.64-0.66,0.75-1.2
		c0.11-0.54,0.17-1.8,0.17-3.78v-11.62c0-1.89-0.06-3.11-0.17-3.65c-0.11-0.55-0.34-0.93-0.7-1.14c-0.36-0.21-1.13-0.31-2.33-0.31
		h-0.52v-0.8h11.38v0.8h-1.05c-1.17,0-1.93,0.1-2.29,0.29c-0.36,0.19-0.6,0.55-0.73,1.07c-0.12,0.52-0.18,1.77-0.18,3.74v12.41
		c0,1.71,0.05,2.79,0.14,3.22c0.09,0.43,0.35,0.77,0.76,1c0.41,0.24,1.3,0.36,2.67,0.36h1.8c1.46,0,2.54-0.13,3.24-0.38
		c0.7-0.26,1.37-0.82,2.01-1.68c0.63-0.86,1.21-2.23,1.74-4.11H252.39z"/>
	<path class="st0" d="M87.14,270.74h-9l-0.61,1.5c-0.91,2.18-1.36,3.6-1.36,4.27c0,0.71,0.24,1.25,0.73,1.62
		c0.48,0.37,1.1,0.55,1.86,0.55v0.8H71.7v-0.8c1.05-0.16,1.83-0.53,2.34-1.11c0.51-0.58,1.13-1.79,1.85-3.64
		c0.06-0.17,0.34-0.85,0.84-2.03l6.89-16.45h0.68l7.92,18.82l1.08,2.48c0.24,0.56,0.57,1,0.99,1.32c0.41,0.32,1.03,0.52,1.86,0.6
		v0.8h-9.32v-0.8c1.14,0,1.91-0.08,2.32-0.25c0.4-0.17,0.6-0.5,0.6-1c0-0.26-0.27-1.02-0.8-2.29L87.14,270.74z M86.84,269.96
		l-4.2-10.1l-4.18,10.1H86.84z"/>
	<path class="st0" d="M116.83,270.59h0.75v8.3h-0.75c-0.21-0.94-0.59-1.78-1.14-2.5c-2.09,2.35-4.75,3.53-7.99,3.53
		c-3.43,0-6.23-1.08-8.4-3.25c-2.17-2.17-3.26-5.03-3.26-8.6c0-2.34,0.5-4.55,1.5-6.62s2.4-3.6,4.2-4.61c1.79-1,3.76-1.5,5.91-1.5
		c1.77,0,3.38,0.36,4.82,1.09c1.44,0.73,2.51,1.54,3.22,2.42c0.5-0.99,0.8-2.02,0.91-3.08h0.77l0.21,8.98h-0.75
		c-0.52-3.19-1.59-5.41-3.21-6.66c-1.61-1.25-3.43-1.87-5.46-1.87c-2.48,0-4.45,1.01-5.92,3.02c-1.46,2.02-2.19,4.9-2.19,8.65
		c0,3.55,0.8,6.28,2.39,8.17c1.6,1.89,3.58,2.84,5.96,2.84c1.27,0,2.57-0.31,3.9-0.93c1.33-0.62,2.38-1.66,3.15-3.14
		S116.69,271.96,116.83,270.59z"/>
	<path class="st0" d="M133.96,270.74h-9l-0.61,1.5c-0.91,2.18-1.36,3.6-1.36,4.27c0,0.71,0.24,1.25,0.73,1.62
		c0.48,0.37,1.1,0.55,1.86,0.55v0.8h-7.04v-0.8c1.05-0.16,1.83-0.53,2.34-1.11c0.51-0.58,1.13-1.79,1.85-3.64
		c0.06-0.17,0.34-0.85,0.84-2.03l6.89-16.45h0.68l7.92,18.82l1.08,2.48c0.24,0.56,0.57,1,0.99,1.32c0.41,0.32,1.03,0.52,1.86,0.6
		v0.8h-9.32v-0.8c1.14,0,1.91-0.08,2.32-0.25c0.4-0.17,0.6-0.5,0.6-1c0-0.26-0.27-1.02-0.8-2.29L133.96,270.74z M133.66,269.96
		l-4.2-10.1l-4.18,10.1H133.66z"/>
	<path class="st0" d="M142.87,255.97l3.9-0.19c3.25-0.16,5.44-0.24,6.57-0.24c3.52,0,6.26,0.54,8.23,1.61s3.43,2.53,4.4,4.36
		c0.96,1.84,1.44,3.95,1.44,6.35c0,1.74-0.26,3.32-0.79,4.76c-0.52,1.44-1.24,2.63-2.16,3.58c-0.91,0.95-1.97,1.67-3.18,2.17
		c-1.21,0.5-2.35,0.8-3.43,0.93s-2.61,0.18-4.58,0.18h-10.5v-0.8h0.98c1.01,0,1.72-0.13,2.11-0.38c0.39-0.26,0.64-0.66,0.75-1.2
		c0.11-0.54,0.17-1.8,0.17-3.78v-11.43c0-1.89-0.06-3.11-0.17-3.66c-0.11-0.55-0.34-0.93-0.7-1.14c-0.36-0.2-1.13-0.31-2.33-0.31
		h-0.7V255.97z M150.18,256.46v15.83c0,2.34,0.04,3.85,0.13,4.53c0.09,0.68,0.35,1.15,0.79,1.42c0.44,0.27,1.36,0.41,2.77,0.41
		c2.06,0,3.76-0.28,5.09-0.85c1.33-0.56,2.44-1.68,3.33-3.34c0.89-1.66,1.34-3.78,1.34-6.35c0-2-0.26-3.79-0.78-5.37
		c-0.52-1.57-1.26-2.85-2.23-3.84c-0.97-0.98-2.04-1.65-3.22-2.01c-1.18-0.35-2.69-0.53-4.53-0.53
		C151.98,256.38,151.09,256.4,150.18,256.46z"/>
	<path class="st0" d="M188.96,272.11h0.84l-0.51,7.38h-19.63v-0.8h0.49c1.18,0,1.94-0.16,2.28-0.47c0.34-0.31,0.56-0.71,0.66-1.2
		c0.09-0.48,0.14-1.72,0.14-3.7v-11.62c0-1.81-0.05-2.99-0.15-3.57c-0.1-0.57-0.33-0.97-0.68-1.2c-0.36-0.23-1.1-0.34-2.25-0.34
		v-0.8h16.94l0.56,5.91h-0.82c-0.37-1.65-0.83-2.83-1.37-3.52c-0.54-0.69-1.19-1.13-1.93-1.31c-0.75-0.18-1.95-0.27-3.6-0.27h-3.29
		v9.94h2.52c1.15,0,1.96-0.1,2.42-0.3c0.46-0.2,0.76-0.5,0.91-0.9c0.15-0.4,0.22-1.19,0.22-2.35h0.82v8.11h-0.82
		c0-1.32-0.11-2.2-0.33-2.65c-0.22-0.45-0.55-0.74-0.97-0.87c-0.43-0.13-1.14-0.2-2.16-0.2h-2.6v5.61c0,2.81,0.18,4.46,0.54,4.96
		c0.36,0.5,1.33,0.74,2.92,0.74h1.77c1.25,0,2.27-0.16,3.08-0.48c0.8-0.32,1.57-0.98,2.3-1.97
		C187.97,275.23,188.54,273.85,188.96,272.11z"/>
	<path class="st0" d="M207.51,275.39l8.63-19.61h7.27v0.8h-0.87c-1.17,0-1.93,0.1-2.29,0.29c-0.36,0.19-0.6,0.55-0.73,1.07
		c-0.12,0.52-0.18,1.77-0.18,3.74v11.62c0,1.86,0.05,3.08,0.14,3.66c0.09,0.58,0.33,1,0.71,1.28c0.38,0.28,1.1,0.42,2.18,0.42h1.05
		v0.8h-11.33v-0.8h0.84c1,0,1.7-0.13,2.09-0.38c0.39-0.26,0.64-0.66,0.75-1.2c0.11-0.54,0.17-1.8,0.17-3.78v-15.08l-9.39,21.25
		h-0.82l-9.46-21.25v13.88c0,1.9,0.06,3.19,0.17,3.88c0.12,0.69,0.48,1.29,1.08,1.81c0.61,0.52,1.46,0.81,2.55,0.88v0.8h-8.48v-0.8
		c1.01-0.06,1.84-0.34,2.47-0.83c0.63-0.5,1.02-1.1,1.16-1.83c0.14-0.72,0.21-2.06,0.21-4.02v-10.31c0-1.89-0.06-3.11-0.17-3.65
		c-0.11-0.55-0.34-0.93-0.7-1.14c-0.35-0.21-1.13-0.31-2.33-0.31h-0.65v-0.8h7.22L207.51,275.39z"/>
	<path class="st0" d="M236.14,269.12l4.67-7.85c0.77-1.28,1.15-2.19,1.15-2.73c0-0.49-0.2-0.94-0.61-1.35
		c-0.41-0.41-1.14-0.61-2.18-0.61v-0.8h7.74v0.8c-1.07,0.15-1.94,0.55-2.6,1.2c-0.66,0.65-1.5,1.82-2.53,3.52l-5.31,8.86v3.15
		c0,2.02,0.06,3.3,0.18,3.85c0.12,0.55,0.38,0.94,0.79,1.17c0.4,0.23,1.19,0.34,2.37,0.34v0.8h-10.1v-0.8h0.38
		c1.01,0,1.72-0.13,2.11-0.38c0.39-0.26,0.64-0.66,0.74-1.2c0.1-0.54,0.16-1.8,0.16-3.78v-2.92l-5.91-9.7c-1.2-1.96-2-3.13-2.39-3.5
		c-0.4-0.38-1.11-0.58-2.13-0.6v-0.8h9.61v0.8c-1.79,0-2.69,0.41-2.69,1.22c0,0.33,0.3,0.98,0.89,1.96L236.14,269.12z"/>
	<path class="st0" d="M214.73,123.01V54.55H102.77v68.46c0,0-0.76,16.82,20.55,33.65l35.89,32.55l35.89-32.55
		C216.41,139.84,214.73,123.01,214.73,123.01z"/>
	<path class="st1" d="M205.4,121.88v-58.1h-43.2l0.18,5.46h37.49v50.36c0,0,0.74,12.92-14.52,24.89l-15.21,13.79l2.06-20.22
		l10.19-1.7v-3.7h-47.54c0-0.2-0.1,3.6-0.1,3.6l8.99,1.8l2.99,19.57l-14.48-13.14c-15.27-12.36-14.52-24.89-14.52-24.89V69.24h39.46
		c0.59-2.33,0.7-4.15,0.65-5.46h-45.76v58.1c0,0-0.43,14.09,16.94,28.11l29.99,27.2l29.99-27.2
		C206.42,136.34,205.4,121.88,205.4,121.88z M154.14,164.34l-3.58-3.25l-1.61-22.93h5.19V164.34z"/>
	<path class="st2" d="M156.41,130.4c0,0-37.81-16.69-0.6-49.43c0,0,8.5-6.3,4.51-24.64c0,0,13.8,17.25-5.01,39.03
		C155.3,95.36,142.91,108.96,156.41,130.4z"/>
	<path class="st2" d="M161.84,130.37c0,0-7.86-6.13-7.63-15.14c0.4-15.77,15.36-16.54,13.37-36.36c0,0,8.75,12.9-0.15,24.71
		C167.44,103.59,158.09,114.82,161.84,130.37z"/>
	<path class="st2" d="M166.12,130.33c0,0-3.86-9.61,3.05-17.57c0,0,6.91-7.81,4.81-15.92C173.97,96.83,186.4,115.38,166.12,130.33z"
		/>
</g>
</svg>
